<svg fill="none" height="73" viewBox="0 0 72 73" width="72" xmlns="http://www.w3.org/2000/svg" xmlns:xlink="http://www.w3.org/1999/xlink"><filter id="a" color-interpolation-filters="sRGB" filterUnits="userSpaceOnUse" height="51.9376" width="62.5896" x="4.30553" y="7.96217"><feFlood flood-opacity="0" result="BackgroundImageFix"/><feColorMatrix in="SourceAlpha" result="hardAlpha" type="matrix" values="0 0 0 0 0 0 0 0 0 0 0 0 0 0 0 0 0 0 127 0"/><feOffset dy="2.36367"/><feGaussianBlur stdDeviation="3.15156"/><feColorMatrix type="matrix" values="0 0 0 0 0.641861 0 0 0 0 0.3664 0 0 0 0 0.9136 0 0 0 0.66 0"/><feBlend in2="BackgroundImageFix" mode="normal" result="effect1_dropShadow_376_3221"/><feBlend in="SourceGraphic" in2="effect1_dropShadow_376_3221" mode="normal" result="shape"/></filter><linearGradient id="b" gradientUnits="userSpaceOnUse" x1="36" x2="36" y1=".400635" y2="72.4006"><stop offset="0" stop-color="#180c2e"/><stop offset="1" stop-color="#180c2e" stop-opacity="0"/></linearGradient><radialGradient id="c" cx="0" cy="0" gradientTransform="matrix(0 43.943 -43.943 0 36.75 50.8552)" gradientUnits="userSpaceOnUse" r="1"><stop offset="0" stop-color="#7026b9"/><stop offset=".851064" stop-color="#7026b9" stop-opacity="0"/></radialGradient><linearGradient id="d" gradientUnits="userSpaceOnUse" x1="35.8637" x2="35.8637" y1=".845093" y2="71.7551"><stop offset="0" stop-color="#7026b9" stop-opacity="0"/><stop offset=".505208" stop-color="#7026b9" stop-opacity=".5"/><stop offset="1" stop-color="#7026b9" stop-opacity=".25"/></linearGradient><radialGradient id="e" cx="0" cy="0" gradientTransform="matrix(0 17.7275 -35.455 0 35.8637 54.0276)" gradientUnits="userSpaceOnUse" r="1"><stop offset="0" stop-color="#7026b9" stop-opacity=".6"/><stop offset="1" stop-color="#7026b9" stop-opacity="0"/></radialGradient><linearGradient id="f" gradientUnits="userSpaceOnUse" x1="35.8637" x2="35.8637" y1="16.6029" y2="36.3001"><stop offset="0" stop-color="#7026b9" stop-opacity=".25"/><stop offset="1" stop-color="#7026b9" stop-opacity="0"/></linearGradient><linearGradient id="g" gradientUnits="userSpaceOnUse" x1="10" x2="62" y1="36.5" y2="36.5"><stop offset="0" stop-color="#48434f"/><stop offset=".479167" stop-color="#48434f" stop-opacity="0"/><stop offset="1" stop-color="#48434f"/></linearGradient><linearGradient id="h" gradientUnits="userSpaceOnUse" x1="35.8637" x2="35.8637" y1="16.6029" y2="55.9973"><stop offset="0" stop-color="#7026b9" stop-opacity="0"/><stop offset=".659969" stop-color="#7026b9"/><stop offset="1" stop-color="#a456f0"/></linearGradient><radialGradient id="i" cx="0" cy="0" gradientTransform="matrix(0 43.9581 -79.1246 0 35.9534 18.0795)" gradientUnits="userSpaceOnUse" r="1"><stop offset=".354167" stop-color="#7026b9" stop-opacity=".2"/><stop offset=".671875" stop-color="#7026b9" stop-opacity=".5"/><stop offset=".776042" stop-color="#7026b9"/><stop offset=".90625" stop-color="#8a3ed5"/><stop offset="1" stop-color="#7026b9"/></radialGradient><linearGradient id="j"><stop offset="0" stop-color="#7026b9" stop-opacity="0"/><stop offset=".598958" stop-color="#7026b9"/><stop offset="1" stop-color="#a456f0"/></linearGradient><linearGradient id="k" gradientUnits="userSpaceOnUse" x1="36" x2="36" xlink:href="#j" y1="22" y2="51"/><radialGradient id="l" cx="0" cy="0" gradientTransform="matrix(0 -24.442 24.9409 0 35.9567 37.4668)" gradientUnits="userSpaceOnUse" r="1"><stop offset="0" stop-color="#7026b9"/><stop offset=".9999" stop-color="#230e3c" stop-opacity=".22527"/><stop offset="1" stop-color="#0c0717" stop-opacity="0"/></radialGradient><linearGradient id="m" gradientUnits="userSpaceOnUse" x1="36.1591" x2="36.1591" xlink:href="#j" y1="-11" y2="51.2331"/><linearGradient id="n" gradientUnits="userSpaceOnUse" x1="36.159" x2="36.159" xlink:href="#j" y1="-11" y2="51.233"/><radialGradient id="o" cx="0" cy="0" gradientTransform="matrix(0 -36.8052 52.5213 0 35.7872 51.5812)" gradientUnits="userSpaceOnUse" r="1"><stop offset="0" stop-color="#b17acc"/><stop offset=".427083" stop-color="#7026b9"/><stop offset="1" stop-color="#0c0717" stop-opacity="0"/></radialGradient><linearGradient id="p" gradientUnits="userSpaceOnUse" x1="35.8402" x2="35.8402" y1="12.1896" y2="61.7808"><stop offset="0" stop-color="#7026b9"/><stop offset="1" stop-color="#362066"/></linearGradient><radialGradient id="q" cx="0" cy="0" gradientTransform="matrix(0 20.3714 -20.3714 0 35.5 27.6286)" gradientUnits="userSpaceOnUse" r="1"><stop offset="0" stop-color="#fff" stop-opacity="0"/><stop offset="1" stop-color="#d9bae8"/></radialGradient><linearGradient id="r" gradientUnits="userSpaceOnUse" x1="36" x2="36" y1="22" y2="51"><stop offset=".21875" stop-color="#7026b9" stop-opacity="0"/><stop offset=".697917" stop-color="#7026b9"/><stop offset="1" stop-color="#a456f0"/></linearGradient><linearGradient id="s" gradientUnits="userSpaceOnUse" x1="35.6519" x2="35.6519" y1="12.4564" y2="60.8476"><stop offset="0" stop-color="#542c85"/><stop offset="1" stop-color="#542c85" stop-opacity="0"/></linearGradient><linearGradient id="t" gradientUnits="userSpaceOnUse" x1="35.5" x2="35.5" y1="7" y2="66"><stop offset="0" stop-color="#452475"/><stop offset="1" stop-color="#452475" stop-opacity="0"/></linearGradient><linearGradient id="u" gradientUnits="userSpaceOnUse" x1="18.0022" x2="18.0022" y1="51" y2="55"><stop offset="0" stop-color="#7026b9"/><stop offset="1" stop-color="#a456f0"/></linearGradient><linearGradient id="v" gradientUnits="userSpaceOnUse" x1="45.0839" x2="43.9148" y1="6.5852" y2="10.4105"><stop offset="0" stop-color="#362066"/><stop offset="1" stop-color="#7026b9"/></linearGradient><linearGradient id="w" gradientUnits="userSpaceOnUse" x1="36" x2="36" y1=".400635" y2="72.4006"><stop offset="0" stop-color="#362066"/><stop offset=".0885417" stop-color="#362066"/><stop offset=".520833" stop-color="#362066" stop-opacity="0"/></linearGradient><clipPath id="x"><path d="m0 .400635h72v72h-72z"/></clipPath><clipPath id="y"><rect height="72" rx="36" width="72" y=".400635"/></clipPath><mask id="z" height="63" maskUnits="userSpaceOnUse" width="104" x="-16" y="-11"><path clip-rule="evenodd" d="m35.7284 51.233c14.2697 0 25.8376-6.4266 25.8376-14.3542h25.8375c-10.6677-49.6049-40.4488-48.1732-49.8851-47.7196-.7214.0347-1.324.0637-1.79.0637-47.0818-4.0192-50.8138 47.6559-50.8138 47.6559h24.97628c0 7.9276 11.56782 14.3542 25.83752 14.3542z" fill="url(#n)" fill-rule="evenodd"/></mask><g clip-path="url(#x)"><g clip-path="url(#y)"><rect fill="url(#b)" height="72" rx="36" width="72" y=".400635"/><circle cx="36.75" cy="50.8552" fill="url(#c)" opacity=".2" r="43.943" transform="matrix(-.70710678 -.70710678 .70710678 -.70710678 26.776117 112.801431)"/><circle cx="35.8637" cy="36.3001" opacity=".5" r="35.205" stroke="url(#d)" stroke-width=".5"/><path d="m35.8637 71.7551c19.5812 0 35.455-15.8737 35.455-35.455h-70.910009c0 19.5813 15.873709 35.455 35.455009 35.455z" fill="url(#e)" opacity=".5"/><path d="m35.8637 16.6029c-19.5813 0-35.455009 8.8188-35.455009 19.6972h70.910009c0-10.8784-15.8738-19.6972-35.455-19.6972z" fill="url(#f)"/><ellipse cx="36" cy="36.5" fill="url(#g)" rx="26" ry="14.5"/><ellipse cx="35.8637" cy="36.3001" fill="url(#h)" opacity=".05" rx="35.455" ry="19.6972"/><path d="m70.9437 36.3001c0 5.2412-3.8284 10.0651-10.1917 13.6003-6.3505 3.528-15.1491 5.7219-24.8883 5.7219s-18.5378-2.1939-24.8884-5.7219c-6.36323-3.5352-10.191609-8.3591-10.191609-13.6003s3.828379-10.0651 10.191609-13.6002c6.3506-3.5281 15.1492-5.722 24.8884-5.722s18.5378 2.1939 24.8883 5.722c6.3633 3.5351 10.1917 8.359 10.1917 13.6002z" opacity=".75" stroke="url(#i)" stroke-width=".75"/><path d="m61.8523 36.5c0 3.9263-2.8554 7.5117-7.5395 10.124-4.6792 2.6096-11.1535 4.2283-18.3128 4.2283s-13.6336-1.6187-18.3128-4.2283c-4.6841-2.6123-7.5395-6.1977-7.5395-10.124s2.8554-7.5117 7.5395-10.124c4.6792-2.6096 11.1535-4.2283 18.3128-4.2283s13.6336 1.6187 18.3128 4.2283c4.6841 2.6123 7.5395 6.1977 7.5395 10.124z" stroke="url(#k)" stroke-width=".295458"/><path d="m36 13c-13.8071 0-25 10.969-25 24.5s11.1929 24.5 25 24.5 25-10.969 25-24.5-11.1929-24.5-25-24.5z" fill="url(#l)"/><g filter="url(#a)" opacity=".5"><path clip-rule="evenodd" d="m60.1553 41.5693c-3.4986 5.6243-13.1135 9.6637-24.4267 9.6637-11.74 0-21.6512-4.3499-24.7963-10.3069-.2129-1.3128-.3237-2.6599-.3237-4.0328 0-13.8025 11.1892-24.9917 24.9917-24.9917 13.8026 0 24.9917 11.1892 24.9917 24.9917 0 1.5981-.15 3.1612-.4367 4.676z" fill="url(#m)" fill-rule="evenodd"/></g><g mask="url(#z)"><path d="m35.7439 62.173c13.8025 0 24.9917-11.1892 24.9917-24.9917s-11.1892-24.9917-24.9917-24.9917-24.9917 11.1892-24.9917 24.9917 11.1892 24.9917 24.9917 24.9917z" fill="#7026b9" opacity=".5"/><path d="m35.7439 62.1731c13.8025 0 24.9917-11.1891 24.9917-24.9917 0-13.8025-11.1892-24.9916-24.9917-24.9916s-24.9917 11.1891-24.9917 24.9916c0 13.8026 11.1892 24.9917 24.9917 24.9917z" fill="url(#o)" opacity=".75"/><path d="m11.7358 42.885c-.4035-1.6142-.8071-4.708-.6725-6.8603.1345-1.7487.269-4.17 1.6141-7.8019 1.2107-3.2284 2.9594-5.5151 3.7665-6.5913 1.2106-1.6142 2.8248-3.2283 4.8425-4.708 3.632-2.6903 8.4745-4.439 13.3171-4.7081 6.1877-.269 10.8957 1.6142 13.8551 3.3629 5.5151 3.3629 8.3399 7.8019 9.5506 10.0887.538 1.0761 1.0761 2.4213 1.4796 3.4974.5381 1.6142.5381 1.6142.9417 4.3045.1345.5381.4035 3.4974 0 6.4568-.2691 2.0177-.6726 4.439-2.1523 7.5328-.5381 1.0761-1.2106 2.4213-1.8832 3.3629s-1.6142 2.1523-2.2868 2.9594c0 0-2.1522 2.4212-5.1116 4.3045-.9416.538-3.2283 2.0177-6.5912 2.8248-3.3629.9416-5.9187.9416-6.8603.8071.538 0 1.2106-8.34 1.4797-20.1774.4035-13.4515.1345-26.4995-.5381-29.0553.6726 2.5558.8071 15.6038.5381 29.0553-.2691 11.8374-.9417 20.1774-1.4797 20.1774 0 0-1.2107 0-2.2868-.1345-1.0761-.1346-2.1522-.2691-3.3629-.6726-2.9593-.8071-7.3983-2.5558-11.5683-6.5913-.8071-.8071-1.7487-2.0177-2.4213-2.8248-.8071-.8071-1.6142-2.1523-2.1522-3.2284-.5381-.8071-1.2107-2.5558-2.0178-5.3806z" fill="url(#p)" opacity=".3"/></g><path d="m35.1743 44.7655c-6.7957-.2496-12.0138-5.3667-12.3779-12.1063 4.126 4.2435 8.7373 7.8629 12.9846 11.9815-.2427.1248-.4854.1248-.6067.1248zm12.9845-11.9815c-.2427 4.1187-3.0337 9.6102-9.7081 11.6071-4.854-5.3667-10.4362-9.6102-15.2902-14.9769 2.5484-9.6102 13.7127-14.1033 21.9646-5.7411-.3641.3744-.8495.8736-1.3349 1.248-6.6743-6.9892-15.533-3.9938-18.4454 3.3698 4.49 4.6179 9.4654 8.6118 13.834 13.4793 3.7619-1.6225 5.5822-3.8691 6.7957-7.8629-1.6989-.1248-3.5192-.2496-5.4608-.2496 0-.8737 0-1.7473 0-2.621 2.7911 0 5.4608.2496 7.7665.4992-.1214.3745-.1214.8737-.1214 1.2481zm2.7911.9985c.7281-8.4869-6.5529-17.5979-17.2319-16.7242-14.6834 2.6209-18.688 19.9692-6.5529 28.2065 11.0429 7.4884 22.814-1.7473 23.7848-11.4823z" fill="#fff"/><path d="m35.1743 44.7655c-6.7957-.2496-12.0138-5.3667-12.3779-12.1063 4.126 4.2435 8.7373 7.8629 12.9846 11.9815-.2427.1248-.4854.1248-.6067.1248zm12.9845-11.9815c-.2427 4.1187-3.0337 9.6102-9.7081 11.6071-4.854-5.3667-10.4362-9.6102-15.2902-14.9769 2.5484-9.6102 13.7127-14.1033 21.9646-5.7411-.3641.3744-.8495.8736-1.3349 1.248-6.6743-6.9892-15.533-3.9938-18.4454 3.3698 4.49 4.6179 9.4654 8.6118 13.834 13.4793 3.7619-1.6225 5.5822-3.8691 6.7957-7.8629-1.6989-.1248-3.5192-.2496-5.4608-.2496 0-.8737 0-1.7473 0-2.621 2.7911 0 5.4608.2496 7.7665.4992-.1214.3745-.1214.8737-.1214 1.2481zm2.7911.9985c.7281-8.4869-6.5529-17.5979-17.2319-16.7242-14.6834 2.6209-18.688 19.9692-6.5529 28.2065 11.0429 7.4884 22.814-1.7473 23.7848-11.4823z" fill="url(#q)"/><g stroke-width=".75"><path d="m61.625 36.5c0 3.8068-2.771 7.3312-7.4229 9.9255-4.6394 2.5874-11.0741 4.1995-18.2021 4.1995s-13.5627-1.6121-18.2021-4.1995c-4.6519-2.5943-7.4229-6.1187-7.4229-9.9255s2.771-7.3312 7.4229-9.9255c4.6394-2.5874 11.0741-4.1995 18.2021-4.1995s13.5627 1.6121 18.2021 4.1995c4.6519 2.5943 7.4229 6.1187 7.4229 9.9255z" stroke="url(#r)"/><circle cx="35.6519" cy="36.652" r="23.8206" stroke="url(#s)"/><circle cx="35.5" cy="36.5" r="29.125" stroke="url(#t)"/></g><circle cx="58.4152" cy="43.2445" fill="#8a4baf" r=".864129"/><circle cx="20.8641" cy="17.8641" fill="#542c85" r=".864129"/><circle cx="43.75" cy="14.1506" fill="#452475" r=".75"/><circle cx="61.5" cy="49.4006" fill="#b17acc" r=".5"/><circle cx="9.25" cy="23.75" fill="#8a4baf" r=".75"/><circle cx="51.5" cy="61.5" fill="#639" r=".5"/><circle cx="40.5" cy="71.5" fill="#639" r=".5"/><circle cx="58.8641" cy="18.8641" fill="#542c85" r=".864129"/><path d="m16.2459 53.24c1.0391 0 1.5066.4698 1.5159 1.5222.0005.0624.0254.1221.0692.1665.0439.0444.1033.07.1656.0713h.0052c.0616.0002.1209-.0234.1656-.0659.0447-.0424.0713-.1004.0744-.1619.0521-1.0452.5312-1.5322 1.5081-1.5322h.0119c.0636.0007.1249-.024.1704-.0685s.0714-.1053.0721-.1689c.0007-.0637-.0239-.125-.0685-.1705-.0445-.0455-.1053-.0714-.1689-.0721-1.0429-.0221-1.5277-.5037-1.5251-1.5155v-.0039c.0001-.0315-.006-.0627-.0179-.0918-.012-.0292-.0296-.0557-.0518-.078-.0222-.0224-.0486-.0401-.0776-.0523-.0291-.0121-.0603-.0184-.0918-.0185-.0315-.0001-.0627.006-.0919.0179s-.0557.0295-.0781.0517c-.0223.0222-.0401.0486-.0523.0777-.0122.029-.0185.0602-.0186.0917-.0036 1.0234-.4874 1.5066-1.5236 1.521-.0636.0005-.1245.0262-.1691.0715-.0447.0454-.0696.1066-.0691.1703.0005.0636.0262.1245.0715.1692.0454.0446.1066.0695.1703.069z" fill="url(#u)"/><path d="m42.7497 8.21406c.9936.3037 1.3034.88959 1.0047 1.89884-.0177.0598-.0114.1242.0175.1794.029.0553.0783.0971.1376.1166l.0049.0015c.0589.0182.1225.013.1777-.0146.0551-.0275.0975-.0752.1184-.1331.3554-.98427.9558-1.31002 1.8901-1.02447l.0114.00346c.0606.01925.1265.01361.183-.01568.0565-.02928.0991-.07982.1183-.1405.0193-.06067.0137-.12651-.0156-.18303-.0293-.05651-.0799-.09908-.1405-.11834-.9909-.32593-1.3138-.9282-1.0156-1.8951l.0011-.00368c.0094-.03008.0127-.06172.0098-.09309-.003-.03136-.012-.06185-.0267-.08971-.0147-.02787-.0348-.05256-.059-.07267-.0243-.02011-.0522-.03524-.0823-.04452-.0301-.00934-.0618-.01265-.0932-.00975s-.0619.01195-.0898.02664c-.0278.01468-.0526.03472-.0727.05896s-.0353.05221-.0446.08232c-.3025.97764-.9065 1.29832-1.9016 1.00924-.061-.01816-.1267-.01134-.1827.01896s-.0976.0816-.1158.14261c-.0181.06101-.0113.12673.019.18271s.0816.09763.1426.11579z" fill="url(#v)"/></g><rect height="71.25" rx="35.625" stroke="url(#w)" stroke-opacity=".5" stroke-width=".75" width="71.25" x=".375" y=".775635"/><circle cx="9.48926" cy="59.8694" fill="#542c85" r=".75"/></g></svg>