<svg fill="none" height="73" viewBox="0 0 72 73" width="72" xmlns="http://www.w3.org/2000/svg" xmlns:xlink="http://www.w3.org/1999/xlink"><linearGradient id="a"><stop offset="0" stop-color="#003066"/><stop offset=".0625" stop-color="#002652"/><stop offset=".466658" stop-color="#002652" stop-opacity="0"/></linearGradient><linearGradient id="b" gradientUnits="userSpaceOnUse" x1="9" x2="35.5" xlink:href="#a" y1="10" y2="67"/><linearGradient id="c"><stop offset="0" stop-color="#001329"/><stop offset="1" stop-color="#001329" stop-opacity="0"/></linearGradient><linearGradient id="d" gradientUnits="userSpaceOnUse" x1="35.5" x2="35.5" xlink:href="#c" y1="5" y2="62"/><linearGradient id="e" gradientUnits="userSpaceOnUse" x1="42.7245" x2="36.5354" xlink:href="#a" y1="5" y2="50.4264"/><radialGradient id="f" cx="0" cy="0" gradientTransform="matrix(0 30.5 -30.5 0 35.5 34.5)" gradientUnits="userSpaceOnUse" r="1"><stop offset="0" stop-color="#159bf3"/><stop offset="1" stop-color="#159bf3" stop-opacity="0"/></radialGradient><linearGradient id="g" gradientUnits="userSpaceOnUse" x1="35.5" x2="35.5" xlink:href="#c" y1="65" y2="5"/><linearGradient id="h" gradientUnits="userSpaceOnUse" x1="35.5" x2="35.5" xlink:href="#a" y1="65" y2="5"/><radialGradient id="i" cx="0" cy="0" gradientTransform="matrix(35.06606444 24.91877324 -41.11615252 57.85925494 19.0554 24.2656)" gradientUnits="userSpaceOnUse" r="1"><stop offset="0" stop-color="#8a1bd2"/><stop offset=".296875" stop-color="#047bd3"/><stop offset=".790884" stop-color="#004ca3" stop-opacity="0"/></radialGradient><linearGradient id="j" gradientUnits="userSpaceOnUse" x1="2.28085" x2="67.2956" y1="39.6346" y2="37.7295"><stop offset="0" stop-color="#8a1bd2"/><stop offset=".238667" stop-color="#0e8de6"/><stop offset=".990437" stop-color="#004ca3"/></linearGradient><radialGradient id="k" cx="0" cy="0" gradientTransform="matrix(58.78168573 38.41541874 -45.53122087 69.66999199 8.21851 23.0865)" gradientUnits="userSpaceOnUse" r="1"><stop offset="0" stop-color="#7026b9"/><stop offset=".21875" stop-color="#047bd3"/><stop offset=".713542" stop-color="#004ca3"/></radialGradient><linearGradient id="l"><stop offset="0" stop-color="#004ca3"/><stop offset="1" stop-color="#0e8de6"/></linearGradient><linearGradient id="m" gradientUnits="userSpaceOnUse" x1="56" x2="56" xlink:href="#l" y1="11" y2="15"/><linearGradient id="n" gradientUnits="userSpaceOnUse" x1="47" x2="47" xlink:href="#l" y1="66" y2="70"/><linearGradient id="o" gradientUnits="userSpaceOnUse" x1="22" x2="22" xlink:href="#l" y1="60" y2="62"/><linearGradient id="p" gradientUnits="userSpaceOnUse" x1="67" x2="67" xlink:href="#l" y1="49" y2="51"/><linearGradient id="q" gradientUnits="userSpaceOnUse" x1="30.5" x2="30.5" xlink:href="#l" y1="72" y2="74"/><linearGradient id="r" gradientUnits="userSpaceOnUse" x1="17" x2="14" y1="38.5" y2="38.5"><stop offset="0" stop-color="#004ca3"/><stop offset=".44375" stop-color="#0e8de6"/><stop offset=".93125" stop-color="#a456f0"/></linearGradient><linearGradient id="s" gradientUnits="userSpaceOnUse" x1="5.02439" x2="64.7805" y1="37.6829" y2="41.8659"><stop offset=".0812021" stop-color="#7026b9"/><stop offset=".252463" stop-color="#159bf3"/><stop offset=".536458" stop-color="#004ca3"/><stop offset="1" stop-color="#004ca3" stop-opacity="0"/></linearGradient><linearGradient id="t" gradientUnits="userSpaceOnUse" x1="2.00108" x2="9.49404" y1="33.5994" y2="35.5953"><stop offset="0" stop-color="#7026b9"/><stop offset="1" stop-color="#004ca3"/></linearGradient><clipPath id="u"><rect height="72" rx="36" width="72" y=".400635"/></clipPath><g clip-path="url(#u)"><circle cx="35.5" cy="34.5" r="32.125" stroke="url(#b)" stroke-width=".75"/><path d="m64.625 33.5c0 15.5209-13.0274 28.125-29.125 28.125s-29.125-12.6041-29.125-28.125 13.0274-28.125 29.125-28.125 29.125 12.6041 29.125 28.125z" fill="url(#d)" stroke="url(#e)" stroke-width=".75"/><circle cx="35.5" cy="34.5" fill="url(#f)" r="30.5" transform="matrix(-1 0 0 -1 71 69)"/><path d="m5.375 35c0-16.3556 13.4816-29.625 30.125-29.625s30.125 13.2694 30.125 29.625-13.4816 29.625-30.125 29.625-30.125-13.2694-30.125-29.625z" fill="url(#g)" stroke="url(#h)" stroke-width=".75"/><path d="m12.6299 42.8629c.3484.9153.7642 1.8034 1.2441 2.6568.9074 1.6573 2.0069 3.2015 3.2759 4.6009 1.2843 1.4127 2.7322 2.6674 4.3133 3.738 3.2078 2.1667 6.896 3.521 10.748 3.9465 1.8555.213 3.7301.2101 5.5862-.0087.8697-.1027 1.7327-.2562 2.5847-.4596.8929-.2073 1.6423-.4519 1.6423-.4519.2498-.0815.5745-.2131.8243-.2696 1.0958-.3859 2.1625-.8506 3.1916-1.3905 2.0367-1.0667 3.9098-2.4213 5.5613-4.0217.7803-.7506 1.5073-1.5546 2.1759-2.4062.8557-1.0758 1.6136-2.2258 2.2648-3.4361 2.307-4.2301 3.2827-9.0549 2.7992-13.8409-.2263-2.2174-.7564-4.3922-1.5752-6.4634-.3613-.9098-.7768-1.797-1.2442-2.6568-.6097-1.109-1.3028-2.1699-2.0734-3.1735-.7742-.964-1.6065-1.8798-2.4923-2.7423-.9389-.8882-1.9501-1.6966-3.0234-2.4169-.4302-.2989-1.0226-.6662-1.4778-.9213-.614-.3432-1.4638-.7586-2.0852-1.0623l-.029-.0142c-.8613-.3916-1.7467-.728-2.6511-1.0069-2.9415-.9225-6.0348-1.26945-9.1111-1.022-.9176.0752-1.8305.2017-2.7344.3788-.7555.1634-1.0364.2199-1.6609.3957-.4932.1318-1.149.3575-1.636.5081-1.0998.381-2.1689.8458-3.1979 1.3904-.9103.4825-1.7907 1.0195-2.6365 1.6081-1.0345.7268-2.0104 1.5339-2.9186 2.4136-.7822.7528-1.5114 1.5588-2.1821 2.4124-.849 1.0772-1.6046 2.2247-2.2585 3.4299-.5423 1.0086-1.0172 2.0518-1.4218 3.1228-.4257 1.1675-.7615 2.3657-1.0043 3.5839-.206 1.0982-.3495 2.207-.4296 3.321-.1026 1.903.0159 3.8108.3531 5.6852.1797.8297.4277 1.8966.6574 2.7013.1364.5865.4286 1.3162.6212 1.8714z" fill="url(#i)" fill-opacity=".25"/><path d="m33.1212 38.3436c-7.1623-.38-12.4507-5.2346-12.5541-11.6059 4.379 3.8734 9.0479 7.4239 13.1312 11.6181l-.5889-.0161zm14.3825-11.2442c-.517 3.8674-3.7065 9.0407-11.0068 10.8912-1.2068-1.4238-1.2068-1.4238-15.4623-14.4387 3.2743-9.1751 15.3552-13.3328 23.6981-5.1804l-1.5428.9116c-6.6633-6.8352-16.2679-4.0019-19.787 2.9353 8.4842 7.3313 11.0612 9.5867 13.91 13.013 4.0482-1.5354 6.1869-3.6154 7.6346-7.414-1.9642-.3985-3.9523-.6723-5.9522-.8198.0373-.842.0569-1.6701.0746-2.4924 2.873.214 5.7197.6864 8.5056 1.4114-.0267.3564-.0471.8322-.0915 1.1829zm3.0523 1.5498c1.3214-8.1886-5.831-16.8199-17.3861-16.1029-14.8144 2.1186-20.6375 17.6281-9.7364 25.9237 11.9966 9.1289 25.7121-1.107 27.1186-9.809" fill="#fff"/><path d="m54.3978 19.0396c6.2504-.3587 10.8356.9957 12.364 4.1682 1.8142 3.7662-1.0811 9.2764-7.0705 14.799-4.4236 4.094-10.5311 8.1942-17.6761 11.6017-5.7898 2.818-11.921 4.88-18.2415 6.1349-2.4574.4736-4.9527.7261-7.4556.7544-5.2749 0-9.10214-1.3852-10.47522-4.23-1.54084-3.1973.20502-7.7057 4.91452-12.7088.3603-.3896.7828-.8039 1.1805-1.1874" stroke="url(#j)" stroke-width=".75"/><path d="m20.1657 15.5454c-6.0143-1.7316-10.78589-1.3977-12.97909 1.3605-2.57842 3.2777-.98787 9.2951 3.59739 16.0297 3.4109 4.9598 8.4746 10.2968 14.6876 15.1824 5.0258 4.017 10.5539 7.368 16.4459 9.9691 2.2917 1.0023 4.6709 1.7932 7.1078 2.3625 5.1754 1.1317 9.2201.6184 11.1834-1.8553 2.2119-2.783 1.5036-7.5696-1.9881-13.4756-.2672-.4577-.5903-.9524-.8885-1.4163" stroke="url(#k)" stroke-width=".5232"/><path d="m32.1228 58.12c.519 0 .7525.2349.7571.7611.0003.0312.0127.0611.0346.0833s.0516.0349.0827.0356h.0026c.0308.0001.0604-.0117.0827-.0329s.0356-.0502.0372-.081c.026-.5226.2653-.7661.7532-.7661h.0059c.0318.0003.0625-.012.0852-.0342.0227-.0223.0357-.0527.036-.0845s-.012-.0625-.0342-.0852c-.0223-.0228-.0526-.0358-.0844-.0361-.5209-.011-.763-.2518-.7617-.7578v-.0019c0-.0157-.003-.0313-.009-.0459-.0059-.0146-.0147-.0278-.0258-.039s-.0243-.0201-.0388-.0261c-.0145-.0061-.0301-.0093-.0458-.0093-.0158-.0001-.0314.003-.0459.009-.0146.0059-.0278.0147-.039.0258s-.0201.0243-.0262.0388c-.006.0146-.0092.0302-.0093.0459-.0017.5117-.2434.7533-.7609.7605-.0318.0002-.0622.0131-.0845.0358-.0223.0226-.0347.0533-.0345.0851s.0131.0622.0357.0846c.0227.0223.0533.0347.0851.0345z" fill="#047bd3"/><path d="m54.2457 13.24c1.0379 0 1.5049.4698 1.5142 1.5222.0005.0624.0253.1221.0691.1665s.1032.07.1655.0713h.0051c.0616.0002.1208-.0234.1654-.0659.0447-.0424.0713-.1004.0743-.1619.0521-1.0452.5307-1.5322 1.5066-1.5322h.0118c.0636.0007.1248-.024.1703-.0685.0454-.0445.0713-.1053.072-.1689.0007-.0637-.0239-.125-.0684-.1705s-.1052-.0714-.1688-.0721c-1.0417-.0221-1.526-.5037-1.5235-1.5155v-.0039c.0002-.0315-.0059-.0627-.0179-.0918-.0119-.0292-.0294-.0557-.0516-.078-.0222-.0224-.0486-.0401-.0776-.0523-.029-.0121-.0602-.0184-.0916-.0185-.0315-.0001-.0627.006-.0919.0179-.0291.0119-.0556.0295-.0779.0517-.0224.0222-.0402.0486-.0523.0777-.0122.029-.0185.0602-.0186.0917-.0036 1.0234-.4869 1.5066-1.5219 1.521-.0636.0005-.1244.0262-.169.0715-.0446.0454-.0695.1066-.069.1703.0005.0636.0262.1245.0715.1692.0453.0446.1064.0695.17.069z" fill="url(#m)"/><path d="m45.2457 68.24c1.0379 0 1.5049.4698 1.5142 1.5222.0005.0624.0253.1221.0691.1665s.1032.07.1655.0713h.0051c.0616.0002.1208-.0234.1654-.0659.0447-.0424.0713-.1004.0743-.1619.0521-1.0452.5307-1.5322 1.5066-1.5322h.0118c.0636.0007.1248-.024.1703-.0685.0454-.0445.0713-.1053.072-.1689.0007-.0637-.0239-.125-.0684-.1705s-.1052-.0714-.1688-.0721c-1.0417-.0221-1.526-.5037-1.5235-1.5155v-.0039c.0002-.0315-.0059-.0627-.0179-.0918-.0119-.0292-.0294-.0557-.0516-.078-.0222-.0224-.0486-.0401-.0776-.0523-.029-.0121-.0602-.0184-.0916-.0185-.0315-.0001-.0627.006-.0919.0179-.0291.0119-.0556.0295-.0779.0517-.0224.0222-.0402.0486-.0523.0777-.0122.029-.0185.0602-.0186.0917-.0036 1.0234-.4869 1.5066-1.5219 1.521-.0636.0005-.1244.0262-.169.0715-.0446.0454-.0695.1066-.069.1703.0005.0636.0262.1245.0715.1692.0453.0446.1064.0695.17.069z" fill="url(#n)"/><path d="m21.1228 61.12c.519 0 .7525.2349.7571.7611.0003.0312.0127.0611.0346.0833s.0516.0349.0827.0356h.0026c.0308.0001.0604-.0117.0827-.0329s.0356-.0502.0372-.081c.026-.5226.2653-.7661.7532-.7661h.0059c.0318.0003.0625-.012.0852-.0342.0227-.0223.0357-.0527.036-.0845s-.012-.0625-.0342-.0852c-.0223-.0228-.0526-.0358-.0844-.0361-.5209-.011-.763-.2518-.7617-.7578v-.0019c0-.0157-.003-.0313-.009-.0459-.0059-.0146-.0147-.0278-.0258-.039s-.0243-.0201-.0388-.0261c-.0145-.0061-.0301-.0093-.0458-.0093-.0158-.0001-.0314.003-.0459.009-.0146.0059-.0278.0147-.039.0258s-.0201.0243-.0262.0388c-.006.0146-.0092.0302-.0093.0459-.0017.5117-.2434.7533-.7609.7605-.0318.0002-.0622.0131-.0845.0358-.0223.0226-.0347.0533-.0345.0851s.0131.0622.0357.0846c.0227.0223.0533.0347.0851.0345z" fill="url(#o)"/><path d="m66.1228 50.12c.519 0 .7525.2349.7571.7611.0003.0312.0127.0611.0346.0833s.0516.0349.0827.0356h.0026c.0308.0001.0604-.0117.0827-.0329s.0356-.0502.0372-.081c.026-.5226.2653-.7661.7532-.7661h.0059c.0318.0003.0625-.012.0852-.0342.0227-.0223.0357-.0527.036-.0845s-.012-.0625-.0342-.0852c-.0223-.0228-.0526-.0358-.0844-.0361-.5209-.011-.763-.2518-.7617-.7578v-.0019c0-.0157-.003-.0313-.009-.0459-.0059-.0146-.0147-.0278-.0258-.039s-.0243-.0201-.0388-.0261c-.0145-.0061-.0301-.0093-.0458-.0093-.0158-.0001-.0314.003-.0459.009-.0146.0059-.0278.0147-.039.0258s-.0201.0243-.0262.0388c-.006.0146-.0092.0302-.0093.0459-.0017.5117-.2434.7533-.7609.7605-.0318.0002-.0622.0131-.0845.0358-.0223.0226-.0347.0533-.0345.0851s.0131.0622.0357.0846c.0227.0223.0533.0347.0851.0345z" fill="url(#p)"/><path d="m29.1842 73.12c.7785 0 1.1287.2349 1.1357.7611.0004.0312.019.0611.0519.0833.0328.0222.0773.0349.1241.0356h.0038c.0462.0001.0906-.0117.1241-.0329s.0534-.0502.0557-.081c.0391-.5226.398-.7661 1.1299-.7661h.0089c.0477.0003.0936-.012.1277-.0342.034-.0223.0535-.0527.054-.0845s-.018-.0625-.0513-.0852c-.0334-.0228-.0789-.0358-.1266-.0361-.7813-.011-1.1445-.2518-1.1426-.7578v-.0019c.0001-.0157-.0045-.0313-.0134-.0459-.009-.0146-.0221-.0278-.0388-.039-.0166-.0112-.0364-.0201-.0581-.0261-.0218-.0061-.0452-.0093-.0688-.0093-.0236-.0001-.047.003-.0688.009-.0219.0059-.0418.0147-.0585.0258-.0168.0111-.0301.0243-.0392.0388-.0092.0146-.0139.0302-.014.0459-.0026.5117-.3651.7533-1.1414.7605-.0477.0002-.0933.0131-.1268.0358-.0334.0226-.052.0533-.0517.0851.0004.0318.0196.0622.0536.0846.034.0223.0798.0347.1275.0345z" fill="url(#q)"/><path d="m15.32 37.1842c0 .7785-.3523 1.1287-1.1417 1.1357-.0468.0004-.0916.019-.1248.0519-.0333.0328-.0525.0773-.0535.1241v.0038c-.0001.0462.0176.0906.0494.1241s.0753.0534.1215.0557c.7838.0391 1.1491.398 1.1491 1.1299v.0089c-.0005.0477.018.0936.0514.1277.0334.034.0789.0535.1267.054.0477.0005.0937-.018.1278-.0513.0341-.0334.0536-.0789.0541-.1266.0166-.7813.3778-1.1445 1.1366-1.1426h.0029c.0236.0001.0471-.0045.0689-.0134.0219-.009.0418-.0221.0585-.0388.0168-.0166.0301-.0364.0392-.0581.0091-.0218.0138-.0452.0139-.0688s-.0045-.047-.0134-.0688c-.009-.0219-.0222-.0418-.0388-.0585-.0167-.0168-.0365-.0301-.0583-.0392-.0218-.0092-.0451-.0139-.0688-.014-.7675-.0026-1.1299-.3651-1.1407-1.1414-.0004-.0477-.0197-.0933-.0537-.1268-.034-.0334-.0799-.052-.1276-.0517-.0478.0004-.0934.0196-.1269.0536s-.0522.0798-.0518.1275z" fill="url(#r)"/><circle cx="35.5" cy="33.5" r="24" stroke="url(#s)"/><path d="m3.18424 34.68c.77844 0 1.1287.3523 1.13565 1.1417.00043.0468.01904.0916.05189.1248.03285.0333.07735.0525.12408.0535h.00384c.04616.0001.0906-.0176.12409-.0494.03348-.0318.05343-.0753.05571-.1215.03908-.7838.39797-1.1491 1.1299-1.1491h.00887c.04768.0005.09362-.018.1277-.0514s.05351-.0789.05402-.1267c.00051-.0477-.01795-.0937-.05131-.1278s-.07889-.0536-.12658-.0541c-.78131-.0166-1.14452-.3778-1.1426-1.1366v-.0029c.0001-.0236-.00446-.0471-.01341-.0689-.00895-.0219-.02212-.0418-.03876-.0585-.01663-.0168-.0364-.0301-.05818-.0392-.02177-.0091-.04513-.0138-.06873-.0139-.02362-.0001-.04702.0045-.06887.0134-.02185.009-.04172.0222-.05849.0388-.01676.0167-.03008.0365-.03921.0583-.00912.0218-.01386.0451-.01396.0688-.00263.7675-.36512 1.1299-1.1414 1.1407-.04769.0004-.09328.0197-.12675.0537-.03348.034-.05208.0799-.05174.1276.00035.0478.01963.0934.0536.1269s.07984.0522.12753.0518z" fill="url(#t)"/></g></svg>