<svg fill="none" height="73" viewBox="0 0 72 73" width="72" xmlns="http://www.w3.org/2000/svg" xmlns:xlink="http://www.w3.org/1999/xlink"><radialGradient id="a" cx="0" cy="0" gradientTransform="matrix(0 30.5 -30.5 0 35.5 34.5)" gradientUnits="userSpaceOnUse" r="1"><stop offset="0" stop-color="#bc027f"/><stop offset="1" stop-color="#690147" stop-opacity="0"/></radialGradient><linearGradient id="b"><stop offset="0" stop-color="#bc027f"/><stop offset="1" stop-color="#690147"/></linearGradient><linearGradient id="c" gradientUnits="userSpaceOnUse" x1="35.2348" x2="35.2348" xlink:href="#b" y1="19.6544" y2="51.5065"/><linearGradient id="d" gradientUnits="userSpaceOnUse" x1="35" x2="35" xlink:href="#b" y1="16" y2="55"/><linearGradient id="e" gradientUnits="userSpaceOnUse" x1="35" x2="35" xlink:href="#b" y1="13" y2="58"/><linearGradient id="f" gradientUnits="userSpaceOnUse" x1="54.0543" x2="54.0543" y1="52.6747" y2="60.4947"><stop offset="0" stop-color="#690147"/><stop offset="1" stop-color="#11081f"/></linearGradient><linearGradient id="g" gradientUnits="userSpaceOnUse" x1="56.5" x2="44.5" y1="58" y2="56"><stop offset="0" stop-color="#690147"/><stop offset="1" stop-color="#bc027f"/></linearGradient><linearGradient id="h" gradientUnits="userSpaceOnUse" x1="10.7218" x2="36.5743" y1="50.9211" y2="39.3555"><stop offset="0" stop-color="#bc027f"/><stop offset="1" stop-color="#bc027f"/></linearGradient><linearGradient id="i" gradientUnits="userSpaceOnUse" x1="54.1302" x2="33.4449" y1="23.8942" y2="41.1268"><stop offset=".152022" stop-color="#d459ab"/><stop offset="1" stop-color="#bc027f"/></linearGradient><circle cx="35.5" cy="34.5" fill="url(#a)" r="30.5" transform="matrix(-1 0 0 -1 71 69)"/><path d="m19.2457 13.24c1.0379 0 1.5049.4698 1.5142 1.5222.0005.0624.0253.1221.0691.1665s.1032.07.1655.0713h.0051c.0616.0002.1208-.0234.1654-.0659.0447-.0424.0713-.1004.0743-.1619.0521-1.0452.5307-1.5322 1.5066-1.5322h.0118c.0636.0007.1248-.024.1703-.0685.0454-.0445.0713-.1053.072-.1689.0007-.0637-.0239-.125-.0684-.1705s-.1052-.0714-.1688-.0721c-1.0417-.0221-1.526-.5037-1.5235-1.5155v-.0039c.0002-.0315-.0059-.0627-.0179-.0918-.0119-.0292-.0294-.0557-.0516-.078-.0222-.0224-.0486-.0401-.0776-.0523-.029-.0121-.0602-.0184-.0916-.0185-.0315-.0001-.0627.006-.0919.0179-.0291.0119-.0556.0295-.0779.0517-.0224.0222-.0402.0486-.0523.0777-.0122.029-.0185.0602-.0186.0917-.0036 1.0234-.4869 1.5066-1.5219 1.521-.0636.0005-.1244.0262-.169.0715-.0446.0454-.0695.1066-.069.1703.0005.0636.0262.1245.0715.1692.0453.0446.1064.0695.17.069z" fill="#bc027f"/><path d="m21.1228 61.68c.519 0 .7525.3523.7571 1.1417.0003.0468.0127.0916.0346.1248.0219.0333.0516.0525.0827.0535h.0026c.0308.0001.0604-.0176.0827-.0494s.0356-.0753.0372-.1215c.026-.7838.2653-1.1491.7532-1.1491h.0059c.0318.0005.0625-.018.0852-.0514s.0357-.0789.036-.1267c.0003-.0477-.012-.0937-.0342-.1278-.0223-.0341-.0526-.0536-.0844-.0541-.5209-.0166-.763-.3778-.7617-1.1366v-.0029c0-.0236-.003-.0471-.009-.0689-.0059-.0219-.0147-.0418-.0258-.0585-.0111-.0168-.0243-.0301-.0388-.0392s-.0301-.0138-.0458-.0139c-.0158-.0001-.0314.0045-.0459.0134-.0146.009-.0278.0222-.039.0388-.0112.0167-.0201.0365-.0262.0583-.006.0218-.0092.0451-.0093.0688-.0017.7675-.2434 1.1299-.7609 1.1407-.0318.0004-.0622.0197-.0845.0537s-.0347.0799-.0345.1276c.0002.0478.0131.0934.0357.1269.0227.0335.0533.0522.0851.0518z" fill="#690147"/><path d="m66.1228 50.12c.519 0 .7525.2349.7571.7611.0003.0312.0127.0611.0346.0833s.0516.0349.0827.0356h.0026c.0308.0001.0604-.0117.0827-.0329s.0356-.0502.0372-.081c.026-.5226.2653-.7661.7532-.7661h.0059c.0318.0003.0625-.012.0852-.0342.0227-.0223.0357-.0527.036-.0845s-.012-.0625-.0342-.0852c-.0223-.0228-.0526-.0358-.0844-.0361-.5209-.011-.763-.2518-.7617-.7578v-.0019c0-.0157-.003-.0313-.009-.0459-.0059-.0146-.0147-.0278-.0258-.039s-.0243-.0201-.0388-.0261c-.0145-.0061-.0301-.0093-.0458-.0093-.0158-.0001-.0314.003-.0459.009-.0146.0059-.0278.0147-.039.0258s-.0201.0243-.0262.0388c-.006.0146-.0092.0302-.0093.0459-.0017.5117-.2434.7533-.7609.7605-.0318.0002-.0622.0131-.0845.0358-.0223.0226-.0347.0533-.0345.0851s.0131.0622.0357.0846c.0227.0223.0533.0347.0851.0345z" fill="#690147"/><path d="m4.32 37.1842c0 .7785-.35232 1.1287-1.14168 1.1357-.04679.0004-.09157.019-.12486.0519-.03329.0328-.05246.0773-.05346.1241v.0038c-.00012.0462.01757.0906.04939.1241s.07533.0534.12149.0557c.78384.0391 1.14912.398 1.14912 1.1299v.0089c-.00051.0477.01797.0936.05136.1277.0334.034.07898.0535.12672.054s.09372-.018.12784-.0513c.03412-.0334.05357-.0789.05408-.1266.01656-.7813.37776-1.1445 1.13664-1.1426h.00288c.02363.0001.04704-.0045.0689-.0134.02186-.009.04174-.0221.0585-.0388.01677-.0166.03008-.0364.03919-.0581.00911-.0218.01383-.0452.01389-.0688.00009-.0236-.00447-.047-.01343-.0688-.00896-.0219-.02213-.0418-.03878-.0585-.01665-.0168-.03644-.0301-.05824-.0392-.02181-.0092-.04519-.0139-.06883-.014-.76752-.0026-1.12992-.3651-1.14072-1.1414-.00035-.0477-.01965-.0933-.05365-.1268-.03401-.0334-.07993-.052-.12767-.0517-.04774.0004-.09338.0196-.12689.0536s-.05214.0798-.05179.1275z" fill="#690147"/><path d="m26.6081 51.3406-5.2258 12.1934" stroke="#690147"/><path d="m45.3824 51.3405 5.2258 12.1934" stroke="#690147"/><path d="m53.8152 19.6544h-37.1609c-1.4659 0-2.6543 1.1883-2.6543 2.6543v26.5435c0 1.4659 1.1884 2.6543 2.6543 2.6543h17.2533 19.9076c1.4659 0 2.6543-1.1884 2.6543-2.6543v-3.9816-22.5619c0-1.466-1.1884-2.6543-2.6543-2.6543z" stroke="url(#c)" stroke-width=".75"/><path d="m58.3457 16h-46.6914c-1.4659 0-2.6543 1.1884-2.6543 2.6543v33.6914c0 1.4659 1.1884 2.6543 2.6543 2.6543h21.7207 24.9707c1.4659 0 2.6543-1.1884 2.6543-2.6543v-5.4707-28.2207c0-1.4659-1.1884-2.6543-2.6543-2.6543z" stroke="url(#d)" stroke-opacity=".5" stroke-width=".75"/><path d="m62.3457 13h-54.69135c-1.46596 0-2.65435 1.1884-2.65435 2.6543v39.6914c0 1.4659 1.18839 2.6543 2.65434 2.6543h25.47066 29.2207c1.4659 0 2.6543-1.1884 2.6543-2.6543v-6.7207-32.9707c0-1.4659-1.1884-2.6543-2.6543-2.6543z" stroke="url(#e)" stroke-opacity=".25" stroke-width=".75"/><g fill="#bc027f"><path d="m18.5 47.5h1v1h-1z" stroke="#bc027f"/><path d="m24.25 48.25h1.5v.499999h-1.5z" stroke="#bc027f" stroke-width=".499999"/><path d="m21.5 45.5h1v3h-1z" stroke="#bc027f"/></g><path d="m48.4683 58.4496v4.6399c-.0012.2244.0652.4439.1906.6299s.304.3298.5124.4128l4.4686 1.7874c.2662.1073.5635.1073.8297 0l4.4686-1.7874c.2083-.083.3866-.227.5118-.413s.1913-.4055.1897-.6297v-4.6399" fill="#11081f"/><g stroke-linecap="round" stroke-linejoin="round" stroke-width=".947867"><g stroke="#690147"><path d="m48.4683 58.4496v4.6399c-.0012.2244.0652.4439.1906.6299s.304.3298.5124.4128l4.4686 1.7874c.2662.1073.5635.1073.8297 0l4.4686-1.7874c.2083-.083.3866-.227.5118-.413s.1913-.4055.1897-.6297v-4.6399"/><path d="m58.9386 64.1322-4.4686 1.7874c-.1325.0535-.2728.0803-.4131.0805v-4.946l5.5833-2.6045v4.6399c.0015.2242-.0646.4437-.1898.6297s-.3035.33-.5118.413z" fill="#690147" fill-opacity=".5"/><path d="m48.469 58.4496v4.6399c-.0012.2244.0652.4439.1906.6299.1255.186.304.3298.5125.4128l4.4686 1.7874c.2661.1073.5635.1073.8296 0l4.4686-1.7874c.2083-.083.3867-.227.5118-.413.1252-.186.1913-.4055.1898-.6297v-4.6399"/></g><path d="m54.0543 52.6747-10.0543 4.1394 10.0543 3.6806 10.0543-3.6806z" fill="url(#f)" stroke="url(#g)"/><path d="m44 56.7828v5.6171" stroke="#bc027f"/></g><path d="m36 24c-6.6 0-12 5.4-12 12s5.4 12 12 12 12-5.4 12-12-5.4-12-12-12zm-6.6857 18.6857c-1.8-1.8-2.7429-4.2-2.7429-6.5143l9.3429 9.2572c-2.4-.0857-4.8-.9429-6.6-2.7429zm8.7428 2.4857-11.2285-11.2285c.9428-4.2 4.7143-7.3715 9.1714-7.3715 3.1714 0 5.9143 1.5429 7.6286 3.8572l-1.2857 1.1143c-1.4572-1.9715-3.7715-3.2572-6.3429-3.2572-3.3429 0-6.1714 2.1429-7.2857 5.1429l9.8571 9.8571c2.4857-.8571 4.3715-3 4.9715-5.5714h-4.1143v-1.7143h6c0 4.4571-3.1715 8.2286-7.3715 9.1714z" fill="#fff"/><circle cx="36" cy="36" r="11.5" stroke="#d459ab"/><path d="m38.2457 16.24c1.0379 0 1.5049.4698 1.5142 1.5222.0005.0624.0253.1221.0691.1665s.1032.07.1655.0713h.0051c.0616.0002.1208-.0234.1654-.0659.0447-.0424.0713-.1004.0743-.1619.0521-1.0452.5307-1.5322 1.5066-1.5322h.0118c.0636.0007.1248-.024.1703-.0685.0454-.0445.0713-.1053.072-.1689.0007-.0637-.0239-.125-.0684-.1705s-.1052-.0714-.1688-.0721c-1.0417-.0221-1.526-.5037-1.5235-1.5155v-.0039c.0002-.0315-.0059-.0627-.0179-.0918-.0119-.0292-.0294-.0557-.0516-.078-.0222-.0224-.0486-.0401-.0776-.0523-.029-.0121-.0602-.0184-.0916-.0185-.0315-.0001-.0627.006-.0919.0179-.0291.0119-.0556.0295-.0779.0517-.0224.0222-.0402.0486-.0523.0777-.0122.029-.0185.0602-.0186.0917-.0036 1.0234-.4869 1.5066-1.5219 1.521-.0636.0005-.1244.0262-.169.0715-.0446.0454-.0695.1066-.069.1703.0005.0636.0262.1245.0715.1692.0453.0446.1064.0695.17.069z" fill="#7d0e59"/><path d="m12.2457 31.24c1.0379 0 1.5049.4698 1.5142 1.5222.0005.0624.0253.1221.0691.1665s.1032.07.1655.0713h.0051c.0616.0002.1208-.0234.1654-.0659.0447-.0424.0713-.1004.0743-.1619.0521-1.0452.5307-1.5322 1.5066-1.5322h.0118c.0636.0007.1248-.024.1703-.0685.0454-.0445.0713-.1053.072-.1689.0007-.0637-.0239-.125-.0684-.1705s-.1052-.0714-.1688-.0721c-1.0417-.0221-1.526-.5037-1.5235-1.5155v-.0039c.0002-.0315-.0059-.0627-.0179-.0918-.0119-.0292-.0294-.0557-.0516-.078-.0222-.0224-.0486-.0401-.0776-.0523-.029-.0121-.0602-.0184-.0916-.0185-.0315-.0001-.0627.006-.0919.0179-.0291.0119-.0556.0295-.0779.0517-.0224.0222-.0402.0486-.0523.0777-.0122.029-.0185.0602-.0186.0917-.0036 1.0234-.4869 1.5066-1.5219 1.521-.0636.0005-.1244.0262-.169.0715-.0446.0454-.0695.1066-.069.1703.0005.0636.0262.1245.0715.1692.0453.0446.1064.0695.17.069z" fill="#bc027f"/><path d="m12 54.5 8-18.5 4.5-1" stroke="url(#h)" stroke-linejoin="round"/><path d="m9.36108 56.2817c0-1.1053.89462-2 2.00002-2s2 .8947 2 2c0 1.1054-.8946 2-2 2-1.1054-.0046-2.00002-.8993-2.00002-2z" stroke="#bc027f"/><path d="m18.2053 35.8923c0-1.1054.8946-2 2-2s2 .8946 2 2-.8946 2-2 2c-1.1054-.0046-2-.8993-2-2z" fill="#bc027f"/><path d="m45.2348 29.792 9.7532-8.2587" stroke="url(#i)" stroke-linejoin="round"/><path d="m57.9075 18.4722c.2003-.0446.3661.1577.2829.3453l-2.3976 5.407c-.0961.2169-.4121.1904-.4707-.0395l-.6689-2.6219c-.0183-.0716-.0673-.1315-.134-.1635l-2.4388-1.172c-.2139-.1028-.1777-.4178.0539-.4694z" fill="#d459ab"/></svg>