<?xml version="1.0" encoding="UTF-8"?>
<svg id="Layer_2" data-name="Layer 2" xmlns="http://www.w3.org/2000/svg" viewBox="0 0 180 180">
  <defs>
    <style>
      .cls-1 {
        fill: #fff;
      }

      .cls-2 {
        fill: #e41e2b;
      }
    </style>
  </defs>
  <g id="Layer_1-2" data-name="Layer 1">
    <rect class="cls-2" width="180" height="180"/>
    <g>
      <path class="cls-1" d="m80.39,112.58c-3.45-2.42-7.64-3.49-11.45-3.34-3.85.15-5.59,3.03-5.59,3.03-1.74-3.03-5.17-4.89-10.48-4.84-8.58.1-17.09,4.07-23.84,4.07s-11.19-4.07-11.03-11.28c.27-12.66,10.96-24.07,18.95-29.21,4.59-2.95,8.44-3.83,10.96-3.55,1.84.21,4.04,2.33,2.66,5.45-2.05,4.58-4.87,4.19-4.77,2,.06-1.42,1-2.31,1.72-2.8.46-.31,1.25-.4,1.66-.41.41-.34.72-2.84-2.58-2.02-3.29.82-7.25,4.06-11.03,8.22-3.78,4.17-9.66,12.07-11.11,20.36-.68,3.85-.22,10.85,8.88,10.76,7.72-.06,19.12-5.15,29.58-5.05,4.07.03,7.59,1.13,10.36,2.83,2.71,1.67,5.97,4.11,7.11,5.77Zm2.48-22.95h1.57s-7.93,11.46-12.41,10.94c-2.5-.29-1.75-3.38-1.75-3.38,0,0-3.52,4.12-6.74,3.3-2.93-.75-1.04-5.62-1.04-5.62-.33.14-6.67,7.28-11.11,5.57-4.65-1.79-2.25-7.77-1.35-9.57.74-1.52,1.58-3,1.58-3,0,0-.72.2-1.15.31-.45.11-1.13.23-1.13.23,0,0-2.2,3.58-3.55,5.37-1.34,1.78-7.07,7.94-10.44,6.71-3.37-1.23-2.53-5.94-.64-9.69,3.07-6.08,10.35-13.54,14.74-12.43,4.43,1.13.77,8.33.77,8.33,0,0,.87.12,2.99-1.33,3.05-2.08,7.06-7.67,11.41-7.01,2.03.3,3.94,2.4,1.34,6.38-.84,1.28-2.23,2.42-3.31,1.29-.66-.69-.08-1.98.62-2.85.99-1.25,2.35-1.08,2.35-1.08,0,0,.71-1.65-1.11-1.62-1.48.03-5.22,3.48-7.34,6.97-1.94,3.2-4.87,8.65-1.92,9.84,2.7,1.09,7.84-5.02,10.23-8.22,2.39-3.2,7.81-10.47,12.37-10.76,1.55-.11,2.5,1.32,2.5,1.32l.52-.84h4.55s-8.57,14.33-9.24,15.41c-.53.86-1.22,2.76.71,1.69,1.95-1.07,5.99-6.26,5.99-6.26Zm-35.32-1.46c-.07-.02-1.22-.35-2.34-1.07-1.12-.72-1.63-1.78-1.68-1.85-.04-.07-.08-.01-.13.05-.04.06-.28.37-1.91,2.75-1.62,2.38-4.02,7.26-1.78,8.1,1.44.53,3.87-2,5.18-3.68,1.22-1.56,2.66-3.95,2.73-4.09.06-.15,0-.18-.08-.21Zm1.81-7.61c-1.2-.9-4.24,1.21-4.25,3.37-.02,2.21,2.74,2.84,3.09,2.85,0,0,.32.08.44-.18.08-.16.45-.85.87-1.95.42-1.1.96-3.25-.16-4.1Zm23.19,11.93c1.84-2.52,6.9-11.35,6.9-11.35,0,0-.08-.62-.67-.65-.7-.04-1.86.2-4.2,3.11-2.33,2.91-4.12,5.24-5.44,7.64-1.44,2.63-2.07,4.48-1.24,5,.23.14.58.15.87.08.54-.14,1.24-.67,2.21-1.8.45-.52.97-1.21,1.57-2.04Zm20.45-13.67h-4.33l-2.43,3.95h4.32l2.44-3.95Zm63.79-7.1c-3.19,2.06-7.62,3.92-11.88,3.51-1.07,1.11-2.22,2.4-3.38,3.81,7.38,1.45,13.83-3.11,17.27-7.01,2.14-2.43,3.2-4.6,3.2-4.6,0,0-2.05,2.25-5.21,4.29Zm-12.64,33.52c-.61.98-1.31,2.86.71,1.69,2.45-1.43,5.96-6.74,5.96-6.74h1.59s-2.08,3.31-4.81,6.32c-2.5,2.77-5.54,5.28-7.68,5.03-2.5-.29-1.73-3.58-1.73-3.58,0,0-3.59,3.81-6.06,3.55-3.34-.37-2.32-4.51-2.32-4.51,0,0-3.79,4.65-6.36,4.51-4.04-.24-3.03-5.17-1.91-8.62.61-1.85,1.17-3.31,1.17-3.31,0,0-.41.11-1.27.23-.46.06-1.27.11-1.27.11,0,0-1.68,2.97-3.03,4.76-1.35,1.79-7.06,7.93-10.43,6.71-3.12-1.14-2.09-5.91-.28-9.69,2.63-5.52,10.07-13.47,14.37-12.43,4.44,1.08.1,9.2.1,9.2,0,0,0,.03.05.05.09.03.31.06.85-.05.86-.16,1.63-.48,1.63-.48,0,0,4.48-9.36,9.41-15.5,4.93-6.13,14.78-16.68,18.65-14.13.95.62.52,2.79-.75,5.42-.56.17-1.15.33-1.75.46.86-1.55,1.42-2.85,1.59-3.76.58-3.16-6.81,3.51-12.09,10.69-5.27,7.18-8.45,13.7-8.45,13.7,0,0,1.07-.61,2.73-1.94,1.73-1.4,4.11-3.59,6.7-6.27,1.74-1.79,3.8-4.06,5.71-6.58.57-.03,1.13-.09,1.68-.17-2.13,2.88-4.39,5.51-6.3,7.45-2.1,2.13-4.38,4.42-6.36,6.09-3.15,2.65-5.59,4.16-5.59,4.16,0,0-4.63,9.3-2.11,9.91,1.48.35,4.4-4.15,4.4-4.15,0,0,3.8-5.81,6.1-8.42,3.13-3.56,5.82-5.61,8.51-5.66,1.57-.02,2.5,1.65,2.5,1.65l.74-1.14h4.55s-8.48,14.4-9.16,15.48Zm-25.55-5.67c-.09-.03-1.06-.48-2.09-1.33-1.02-.86-1.54-1.83-1.58-1.9-.03-.07-.09-.02-.13.05-.05.06-.23.21-1.86,2.6-1.61,2.38-4.1,7.3-1.84,8.13,1.43.53,3.84-1.99,5.16-3.67,1.21-1.56,2.35-3.54,2.41-3.68.07-.14,0-.18-.07-.21Zm2.29-4.02c.42-1.1.95-3.25-.17-4.09-1.19-.9-4.22,1.21-4.24,3.36-.01,2.22,2.15,3.22,2.66,3.35.3.08.4.07.55-.17.09-.16.78-1.36,1.21-2.46Zm26.1-3.04c.09-.16.13-.31.13-.31,0,0-.08-.62-.68-.65-.7-.03-1.66.11-4.17,2.88-2.5,2.77-4.03,5.18-5.34,7.59-1.44,2.63-2.01,4.59-1.18,5.09.23.13.58.15.87.08.56-.14,1.2-.66,2.16-1.78.45-.51.96-1.26,1.55-2.09,1.65-2.26,5.83-9.39,6.66-10.83Zm9.8-20.78c-3.19,2.06-7.62,3.92-11.88,3.51-1.07,1.11-2.22,2.4-3.38,3.81,7.38,1.45,13.83-3.11,17.27-7.01,2.14-2.43,3.2-4.6,3.2-4.6,0,0-2.05,2.25-5.21,4.29Zm-20.72,5.35c-3.5-1.79-6.03-3.97-8.69-5.34-2.54-1.3-4.17-1.83-6.22-1.56-.34.04-.84.2-.84.2,0,0,1.06,3.6-3.14,9.65-4.25,6.14-8.1,6.1-9.19,4.4-1.15-1.77.33-5.4,2.81-8.62,2.59-3.37,7.14-6.18,7.14-6.18,0,0-1.45-.88-5.02,1.14-3.47,1.97-9.46,6.65-15,14.56-5.55,7.89-6.65,12.25-7.45,15.66-.8,3.42-.07,7.09,3.73,7.09s8.21-5.79,9.46-7.8c2.3-3.75,3.81-9.49.67-8.7-1.56.39-2.81,2.11-3.6,3.76-.82,1.7-1.14,3.32-1.14,3.32,0,0-1.31.47-3.08,1.79-1.76,1.32-2.91,2.59-2.91,2.59,0,0,.01-2.74,2.19-7.16,2.18-4.43,6.19-6.45,8.44-6.64,2.05-.17,4.71,1.57,2.45,7.97-2.25,6.4-8.89,14.17-15.87,14.27-6.44.1-10.65-8.13-1.7-22.48,9.9-15.87,21.56-20.74,25.34-21.28,3.78-.55,5,1.12,5,1.12,0,0,3.17-1.46,7.18-1.19,4.62.31,8.19,3.58,12.89,5.86-1.23,1.2-2.39,2.42-3.45,3.57Zm-17.19-6.22s-2.7,1.08-5.84,4.54c-3.15,3.47-4.97,7.35-3.61,8.38.52.39,1.71.46,3.9-1.5,1.69-1.53,3.42-3.52,4.6-6.39,1.4-3.43.96-5,.96-5.04Z"/>
      <path class="cls-1" d="m150.64,108.26c.29.16.51.38.67.66.16.28.25.58.25.91s-.08.64-.25.91-.39.5-.67.66-.6.24-.95.24-.67-.08-.95-.24c-.29-.16-.51-.38-.67-.66s-.25-.58-.25-.91.08-.63.25-.91.39-.5.67-.66c.29-.16.6-.24.95-.24s.67.08.95.24Zm-.19,2.84c.22-.12.4-.3.52-.52.12-.22.19-.47.19-.75s-.06-.52-.19-.74c-.12-.22-.3-.39-.52-.52-.22-.12-.48-.19-.77-.19s-.54.06-.77.19c-.22.12-.4.3-.52.52-.12.22-.19.47-.19.74s.06.53.19.75c.12.22.3.39.52.52.22.12.48.19.77.19s.54-.06.77-.19Zm-.06-1.3c-.05.09-.13.15-.23.2l.43.64h-.48l-.39-.6h-.32v.6h-.42v-1.64h.95c.16,0,.29.05.38.15.1.1.14.22.14.37,0,.11-.03.2-.08.29Zm-.98-.13h.45c.05,0,.1-.01.13-.04.03-.03.05-.07.05-.12s-.02-.09-.05-.12c-.03-.03-.07-.04-.13-.04h-.45v.32Z"/>
    </g>
  </g>
</svg>