<?xml version="1.0" encoding="UTF-8"?><svg xmlns="http://www.w3.org/2000/svg" xmlns:xlink="http://www.w3.org/1999/xlink" viewBox="0 0 172.29 133.11"><defs><style>.cls-1{fill:#fff;}.cls-2{clip-path:url(#clippath-2);}.cls-3{isolation:isolate;}.cls-4{clip-path:url(#clippath-6);}.cls-5{fill:#ff8218;}.cls-6{clip-path:url(#clippath-1);}.cls-7{clip-path:url(#clippath-4);}.cls-8{fill:#ff6900;}.cls-9{clip-path:url(#clippath);}.cls-10{fill:none;}.cls-11{fill:#d3c9e7;}.cls-12{clip-path:url(#clippath-3);}.cls-13{mix-blend-mode:soft-light;}.cls-13,.cls-14{fill:#00108a;}.cls-15{fill:#77bc2e;}.cls-16{clip-path:url(#clippath-5);}.cls-17{fill:#c3b7df;}</style><clipPath id="clippath"><path class="cls-10" d="M33.59,71.22c-2.49,.26-4.97,.52-7.46,.79-1.1,.12-2.59,.39-3.62,.52-.18,.02-.3,.18-.29,.35,.02,.21,.05,.64,.05,.64l1.65,21.16s.07,.89,.11,1.33c.01,.14-.09,.27-.23,.3-1.41,.24-2.35,.35-3.74,.54-1.85,.24-3.7,.44-5.56,.59-.64,.05-1.3-.03-1.92-.15-.17-.03-.36-.42-.39-.67-.41-2.85-.8-5.7-1.18-8.55-.74-5.44-1.48-10.87-2.21-16.31-.77-5.73-1.5-11.47-2.29-17.2-.48-3.48-1.02-6.96-1.53-10.44-.1-.71-.17-1.43-.26-2.14-.12-1.02,.72-1.19,1.31-1.3,3.3-.6,20.74-2.83,26.15-3.62,.81-.12,.99,.33,1.07,.92,.2,1.5,.35,2.54,.55,4.05,.25,1.93,.68,4.37,.99,6.29,.09,.59-.01,.98-.54,1.09-1.56,.33-4.8,.84-4.8,.84,0,0-8.95,1.56-9.43,1.63-.15,.02-.25,.16-.23,.31,.27,2.07,.9,8.61,1.08,9.74,.11,.71,.51,.91,1.19,.82,2.51-.33,4.21-.58,6.72-.89,1.3-.16,2.59-.33,3.89-.48h.06c.27-.04,.53,.15,.56,.43,.21,1.44,1.31,7.98,1.33,8.17,.1,.93-.08,1.13-1.03,1.22Z"/></clipPath><clipPath id="clippath-1"><path class="cls-10" d="M105.72,33.85c5.24-.31,12.84-.83,18.08-1.13,4.28-.24,11.77-.81,13.55-.94,.61-.04,.58,.37,.63,.7,.38,2.47,.73,5.26,1.11,7.73,.17,1.13,.23,2.25,.41,3.37,.2,1.23-.99,1.13-1.06,1.14-1.4,.04-7.19,.35-8.51,.56-.2,.03-.35,.21-.34,.42,.14,3.16,.27,6.23,.41,9.3,.2,4.26,.41,8.51,.6,12.77,.19,4.15,.37,8.3,.54,12.45,.05,1.2,.07,2.39,.11,3.59,.02,.59-.2,.81-.85,.83-1.54,.04-2.29,.21-3.83,.32-1.27,.09-7.72,.77-7.78,.78-1.44,.12-1.39-.92-1.48-1.87-.48-5.41-.97-10.82-1.44-16.23-.4-4.62-.65-8.92-1-13.54-.19-2.49-.45-5.3-.59-7.74-.01-.23-.21-.39-.43-.38-1.43,.11-6.46,.46-6.48,.46-.21,.02-.39-.08-.54-.2-.25-.21-.39-.52-.42-.85l-1.23-8.5-.22-1.91c-.04-.33,.06-.66,.28-.9,.12-.13,.28-.23,.47-.24Z"/></clipPath><clipPath id="clippath-2"><path class="cls-10" d="M149.19,46.73c.73-.12,1.08,.02,1.32,.79,1.13,3.61,2.35,7.18,3.5,10.78,1.29,4.03,2.57,8.07,3.79,12.12,.9,2.96,1.71,5.95,2.59,9.06,.04,.16-.05,.32-.21,.35-.7,.14-1.36,.28-2.03,.39-1.08,.16-2.95,.45-4.03,.58-.62,.08-1.12,0-1.44-.68-.72-1.54-1.82-3.99-2.59-5.5-.18-.36-.4-.7-.59-1.01-.06-.1-.17-.15-.28-.13-1.82,.27-3.37,.36-5.03,.6-.12,.02-.21,.11-.23,.23-.38,2.22-.46,5.36-.79,7.57-.09,.59-.3,.82-.88,.9-2.43,.33-4.22,.69-6.64,1.06-.61,.09-.58-.3-.59-.67-.06-2.1-.13-4.2-.16-6.31-.13-8.92-.23-17.84-.37-26.76-.01-.73,.2-1.01,.94-1.12,4.58-.71,9.15-1.47,13.73-2.25Z"/></clipPath><clipPath id="clippath-3"><path class="cls-10" d="M67.34,92.29c-.78,.05-5.87,.74-7.33,.99-.88,.15-1.4-.77-1.56-1.27-.23-.73-4.19-11.12-4.19-11.12,0,0-.12-.31-.19-.49-.05-.12-.18-.2-.31-.18-2.27,.38-4.51,.76-6.7,1.12-.12,.02-.21,.12-.23,.24-.44,3.39-1.93,11.14-2.11,12.35-.07,.5-.31,.69-.83,.75-2.17,.25-4.32,.61-6.49,.79-.54,.04-1.1-.32-1.69-.57-.11-.05-.18-.16-.17-.28,.4-4.02,.79-7.92,1.17-11.83,.48-4.98,.94-9.96,1.44-14.94,.51-5.08,1.06-10.16,1.59-15.25,.25-2.36,.47-4.72,.72-7.07,.14-1.32,.16-1.32,1.5-1.44,3.13-.27,6.27-.53,9.4-.82,.57-.05,.92,.03,1.14,.65,1.33,3.73,2.74,7.43,4.06,11.16,1.29,3.64,2.49,7.31,3.73,10.96,1.53,4.48,3.07,8.95,4.61,13.43,1.27,3.68,2.53,7.35,3.81,11.02,.41,1.17,.13,1.69-1.37,1.79Z"/></clipPath><clipPath id="clippath-4"><path class="cls-10" d="M73.59,91.94c-1.47,.23-1.45,.23-1.64-1.31-.91-7.16-1.7-14.33-2.61-21.49-.95-7.45-1.88-14.91-2.84-22.36-.11-.81,.13-1.13,.94-1.23,2.96-.36,5.92-.78,8.88-1.16,1.94-.25,3.34,.61,4.63,2.02,2.28,2.49,4.7,4.85,7.06,7.26,1.12,1.14,2.36,2.44,3.46,3.6,.11,.12,.52,.63,.98,1.04,.19,.17,.48,.01,.45-.24h0c-.72-5.57-1.6-11.44-2.33-17.01-.51-3.91-.44-3-.97-6.9-.06-.45,.08-.64,.49-.72,4.53-.88,10.55-1.48,10.55-1.48,.98-.08,1.14,.04,1.25,.83,.32,2.4,1.12,8.17,1.53,11.55,.46,3.83,3.31,28,4.52,38.47,.06,.52,.15,1.56,.31,3.68,.07,.91-.35,1.03-.73,1.14-.6,.17-4.43,.76-6.05,1.02-.53,.09-.83-.11-1.16-.49-6.46-7.27-17.74-20.42-17.78-20.47-.27-.31-.61-.22-.61-.22l-.32,.07c-.14,.03-.24,.16-.23,.31,.05,.63,.47,4.81,.75,7.54,.33,3.18,1.43,11.87,1.43,11.87,0,0,.21,1.9,.23,2.83,.01,.5-.41,.66-.9,.72-2.86,.34-5.87,.71-8.72,1.06-.19,.02-.37,.03-.56,.06Z"/></clipPath><clipPath id="clippath-5"><path class="cls-10" d="M33.59,71.22c-2.49,.26-4.97,.52-7.46,.79-1.1,.12-2.59,.39-3.62,.52-.18,.02-.3,.18-.29,.35,.02,.21,.05,.64,.05,.64l1.65,21.16s.07,.89,.11,1.33c.01,.14-.09,.27-.23,.3-1.41,.24-2.35,.35-3.74,.54-1.85,.24-3.7,.44-5.56,.59-.64,.05-1.3-.03-1.92-.15-.17-.03-.36-.42-.39-.67-.41-2.85-.8-5.7-1.18-8.55-.74-5.44-1.48-10.87-2.21-16.31-.77-5.73-1.5-11.47-2.29-17.2-.48-3.48-1.02-6.96-1.53-10.44-.1-.71-.17-1.43-.26-2.14-.12-1.02,.72-1.19,1.31-1.3,3.3-.6,20.74-2.83,26.15-3.62,.81-.12,.99,.33,1.07,.92,.2,1.5,.35,2.54,.55,4.05,.25,1.93,.68,4.37,.99,6.29,.09,.59-.01,.98-.54,1.09-1.56,.33-4.8,.84-4.8,.84,0,0-8.95,1.56-9.43,1.63-.15,.02-.25,.16-.23,.31,.27,2.07,.9,8.61,1.08,9.74,.11,.71,.51,.91,1.19,.82,2.51-.33,4.21-.58,6.72-.89,1.3-.16,2.59-.33,3.89-.48h.06c.27-.04,.53,.15,.56,.43,.21,1.44,1.31,7.98,1.33,8.17,.1,.93-.08,1.13-1.03,1.22Z"/></clipPath><clipPath id="clippath-6"><path class="cls-10" d="M27.6,20.97c-.76-.8-1.47-1.66-2.18-2.5-.33-.39-.3-.6,.1-.93,.5-.41,5.53-2.32,7.5-3.05,9.33-3.47,12.84-6.44,19.73-6.38,9.48,.08,12.43,2.97,13.27,3.46,.47,.27,1.55,1.04,1.55,1.04,8.87,5.55,12.77,17.07,13.74,19.62,2.19,5.75,7.51,15.47,7.63,15.79,.26,.71,.13,.99-.57,1.24-.42,.15-6.12-9-6.12-9.01-2.45-4.05-6.61-4.76-8.72-4.49-.57,.07-1.12,.18-1.13,.18-.29,.04-2.46,.37-3.59,.55-13.37,2.08-17.44,.74-20.42-.2-4.38-1.38-8.62-4.18-12.12-7.02-4.6-3.73-7.94-7.54-8.65-8.29Z"/></clipPath></defs><g class="cls-3"><g id="Layer_1"><g><path class="cls-1" d="M145.07,55.83c-.16-.42-.32-.89-.47-1.34v-.03c-.19-.53-.37-1.08-.59-1.65-.99-2.61-1.92-5-2.84-7.31-.11-.27-.21-.54-.31-.81l-.02-.05c-.44-1.15-.9-2.34-1.56-3.56-1.86-3.41-4.2-6.33-6.47-9.16-.36-.45-.73-.91-1.09-1.36-1.88-2.36-3.96-4.49-5.81-6.38-2.86-2.93-5.79-5.76-8.02-7.91-1.08-1.04-2.2-1.96-3.28-2.85l-.54-.45c-.82-.68-1.65-1.35-2.39-1.95-1.39-1.12-2.83-2.28-4.17-3.45-.79-.69-1.88-1.56-3.29-2.2-.12-.05-.33-.16-.6-.29-1.56-.77-5.21-2.58-10.12-4.02-.32-.09-1.28-.38-7.62-.75-.12,0-.2-.01-.23-.01-.52-.04-1.06-.08-1.66-.1-3.48-.07-6.97-.14-10.45-.21-.17,0-.34,0-.5,0-1.57,0-3.11,.17-6.23,.56-3.08,.38-5.35,.75-6.75,1.1-5.78,1.43-9.66,3.02-14.15,4.85-.89,.36-1.81,.74-2.78,1.13-.83,.33-1.68,.74-2.58,1.24-.08,.04-.15,.08-.24,.13-.68,.37-1.62,.88-2.48,1.7-2.21,2.13-4.05,4.47-5.83,6.73-.37,.47-.74,.94-1.11,1.4-.18,.22-1.04,1.23-1.96,2.3-1.6,1.86-3.59,4.17-4.31,5.09-1.03,1.3-5.26,7.06-5.9,8.18-1.35,2.32-2.52,4.67-3.5,6.65l-.15,.3v.02c-1.44,2.91-2.91,5.93-3.78,9.37-.22,.86-.37,1.7-.51,2.44-.24,1.32-.65,10.87-.38,12.65,.45,3.09,1.06,7.16,1.74,11.34,.45,2.78,.95,5.57,1.43,8.27l.34,1.92c.02,.09,.03,.18,.05,.28v.08c.12,.7,.28,1.66,.74,2.67l.61,1.35c1.51,3.32,3.08,6.76,4.75,10.11,1.75,3.51,4,6.55,6.19,9.49,.76,1.02,7.47,7.7,9.27,8.89,2.39,1.58,4.64,2.94,6.88,4.14,3.76,2.02,7.59,3.99,11.31,5.9,.92,.48,4.71,1.62,5.59,1.81l.02,.07c.17,.04,4.29,.93,11.34,.93h0c9.74,0,25.11-1.68,42.96-9.33,.45-.19,1.29-.78,1.43-.87,9.21-6.35,12.59-10.17,17.7-15.92,1-1.13,2.04-2.3,3.21-3.6,1.88-2.08,6.87-13.69,7.2-16.79,.12-1.1,.3-2.21,.49-3.38v-.02c.11-.64,.21-1.3,.31-1.96,.1-.71,.21-1.43,.32-2.13l.03-.2c.31-1.99,.63-4.04,.83-6.14,.2-2.08,.33-4.22,.44-6.12,.1-1.57,.19-3.2,.33-4.77,.18-2.13-.09-4.11-.83-6.05Z"/><path class="cls-5" d="M141.4,56.81c-.38-1.01-.68-2.05-1.07-3.06-.94-2.46-1.89-4.91-2.86-7.36-.54-1.35-1.01-2.74-1.7-4.02-1.98-3.65-4.68-6.81-7.25-10.04-1.72-2.16-3.66-4.16-5.59-6.14-2.63-2.69-5.32-5.32-8.03-7.92-1.15-1.11-2.4-2.11-3.63-3.13-2.24-1.85-3.72-3.85-6.16-5.42-6.41-4.11-11.97-5.69-12.57-5.74,0,0-8.43-.89-9.13-.97-21.66-2.49-34.06,5.11-39.72,7.38-.74,.3-1.46,.65-2.15,1.03-.64,.35-1.33,.69-1.85,1.2-2.48,2.39-4.52,5.15-6.65,7.84-.91,1.14-1.79,2.3-2.69,3.44-2.3,2.91-4.61,5.82-6.91,8.73-.81,1.02-1.73,1.98-2.38,3.1-1.22,2.11-2.33,4.3-3.4,6.49-1.43,2.91-2.88,5.81-3.68,8.99-.55,2.18-1.13,11.52-.82,13.66,.56,3.81,1.13,7.63,1.75,11.43,.56,3.43,1.18,6.85,1.78,10.27,.12,.69,3.96,9.76,5.84,13.54,2.1,4.23,9.56,13.53,14.2,16.98,2.07,1.54,4.37,2.93,6.64,4.15,4.55,2.45,11.12,6.78,22.2,8.15,18.49,2.29,43.12-6.11,47.79-8.51,.06-.03,.22-.17,.24-.19,.08-.06,.87-.68,.87-.68,0,0,5.4-4.34,8.4-7.46,4.54-4.73,8.8-9.91,9.39-10.93,1.74-3,3.31-6.11,4.84-9.23,.99-2.01,1.86-4.09,2.11-6.37,.2-1.87,.55-3.72,.82-5.58,.41-2.79,.91-5.57,1.17-8.37,.35-3.65,.47-7.33,.78-10.98,.13-1.49-.05-2.89-.58-4.28Z"/><path class="cls-14" d="M165.2,80.01c-.69-2.49-9.99-35.24-10.95-38.63-.05-.17-.2-.28-.38-.28-.71,0-2.44,.03-2.54,.04-2.39,.16-4,.18-6.39,.33-.15,0-.28-.1-.29-.24-.54-4.38-1.08-8.81-1.63-13.32-.02-.15-.15-.26-.3-.25-1.01,.08-2.08,.18-3.14,.24-3.74,.24-7.49,.48-11.23,.7-6.99,.4-13.98,.76-20.97,1.16-.59,.03-.87-.14-.94-.76-.15-1.35-.2-1.99-.34-2.76-.03-.15-.16-.25-.31-.23-3.34,.49-20.16,3.26-20.3,2.92-2.3-5.56-9.74-14.52-9.75-14.53-7.54-9.24-20.4-9.87-20.4-9.87-.3-.07-3.49-.02-3.79,.06l-6.82,1.78-7.16,2.63-13.54,5.6s-3.51,1.46-2.71,2.85l.88,1.97,3.07,4.55c2.33,2.64,8.9,8.47,8.9,8.47,.17,.17,.06,.46-.18,.48l-7.97,.73s-6.53,.74-9.43,1.14c-3.48,.47-6.97,.9-10.45,1.34-1.41,.18-4.91,.79-5.9,.96-.15,.03-.25,.16-.23,.31l8.98,62.29c.02,.09,.08,.17,.17,.21l71.99,29.39c14.62-1.63,28.79-6.62,32.21-8.38l51.76-40.59c.08-.07,.12-.18,.09-.29Z"/><path class="cls-1" d="M67.34,92.29c-.78,.05-5.87,.74-7.33,.99-.88,.15-1.4-.77-1.56-1.27-.23-.73-4.19-11.12-4.19-11.12,0,0-.12-.31-.19-.49-.05-.12-.18-.2-.31-.18-2.27,.38-4.51,.76-6.7,1.12-.12,.02-.21,.12-.23,.24-.44,3.39-1.93,11.14-2.11,12.35-.07,.5-.31,.69-.83,.75-2.17,.25-4.32,.61-6.49,.79-.54,.04-1.1-.32-1.69-.57-.11-.05-.18-.16-.17-.28,.4-4.02,.79-7.92,1.17-11.83,.48-4.98,.94-9.96,1.44-14.94,.51-5.08,1.06-10.16,1.59-15.25,.25-2.36,.47-4.72,.72-7.07,.14-1.32,.16-1.32,1.5-1.44,3.13-.27,6.27-.53,9.4-.82,.57-.05,.92,.03,1.14,.65,1.33,3.73,2.74,7.43,4.06,11.16,1.29,3.64,2.49,7.31,3.73,10.96,1.53,4.48,3.07,8.95,4.61,13.43,1.27,3.68,2.53,7.35,3.81,11.02,.41,1.17,.13,1.69-1.37,1.79Z"/><path class="cls-1" d="M149.19,46.73c.73-.12,1.08,.02,1.32,.79,1.13,3.61,2.35,7.18,3.5,10.78,1.29,4.03,2.57,8.07,3.79,12.12,.9,2.96,1.71,5.95,2.59,9.06,.04,.16-.05,.32-.21,.35-.7,.14-1.36,.28-2.03,.39-1.08,.16-2.95,.45-4.03,.58-.62,.08-1.12,0-1.44-.68-.72-1.54-1.82-3.99-2.59-5.5-.18-.36-.4-.7-.59-1.01-.06-.1-.17-.15-.28-.13-1.82,.27-3.37,.36-5.03,.6-.12,.02-.21,.11-.23,.23-.38,2.22-.46,5.36-.79,7.57-.09,.59-.3,.82-.88,.9-2.43,.33-4.22,.69-6.64,1.06-.61,.09-.58-.3-.59-.67-.06-2.1-.13-4.2-.16-6.31-.13-8.92-.23-17.84-.37-26.76-.01-.73,.2-1.01,.94-1.12,4.58-.71,9.15-1.47,13.73-2.25Z"/><path class="cls-1" d="M33.59,71.22c-2.49,.26-4.97,.52-7.46,.79-1.1,.12-2.59,.39-3.62,.52-.18,.02-.3,.18-.29,.35,.02,.21,.05,.64,.05,.64l1.65,21.16s.07,.89,.11,1.33c.01,.14-.09,.27-.23,.3-1.41,.24-2.35,.35-3.74,.54-1.85,.24-3.7,.44-5.56,.59-.64,.05-1.3-.03-1.92-.15-.17-.03-.36-.42-.39-.67-.41-2.85-.8-5.7-1.18-8.55-.74-5.44-1.48-10.87-2.21-16.31-.77-5.73-1.5-11.47-2.29-17.2-.48-3.48-1.02-6.96-1.53-10.44-.1-.71-.17-1.43-.26-2.14-.12-1.02,.72-1.19,1.31-1.3,3.3-.6,20.74-2.83,26.15-3.62,.81-.12,.99,.33,1.07,.92,.2,1.5,.35,2.54,.55,4.05,.25,1.93,.68,4.37,.99,6.29,.09,.59-.01,.98-.54,1.09-1.56,.33-4.8,.84-4.8,.84,0,0-8.95,1.56-9.43,1.63-.15,.02-.25,.16-.23,.31,.27,2.07,.9,8.61,1.08,9.74,.11,.71,.51,.91,1.19,.82,2.51-.33,4.21-.58,6.72-.89,1.3-.16,2.59-.33,3.89-.48h.06c.27-.04,.53,.15,.56,.43,.21,1.44,1.31,7.98,1.33,8.17,.1,.93-.08,1.13-1.03,1.22Z"/><path class="cls-1" d="M73.59,91.94c-1.47,.23-1.45,.23-1.64-1.31-.91-7.16-1.7-14.33-2.61-21.49-.95-7.45-1.88-14.91-2.84-22.36-.11-.81,.13-1.13,.94-1.23,2.96-.36,5.92-.78,8.88-1.16,1.94-.25,3.34,.61,4.63,2.02,2.28,2.49,4.7,4.85,7.06,7.26,1.12,1.14,2.36,2.44,3.46,3.6,.11,.12,.52,.63,.98,1.04,.19,.17,.48,.01,.45-.24h0c-.72-5.57-1.6-11.44-2.33-17.01-.51-3.91-.44-3-.97-6.9-.06-.45,.08-.64,.49-.72,4.53-.88,10.55-1.48,10.55-1.48,.98-.08,1.14,.04,1.25,.83,.32,2.4,1.12,8.17,1.53,11.55,.46,3.83,3.31,28,4.52,38.47,.06,.52,.15,1.56,.31,3.68,.07,.91-.35,1.03-.73,1.14-.6,.17-4.43,.76-6.05,1.02-.53,.09-.83-.11-1.16-.49-6.46-7.27-17.74-20.42-17.78-20.47-.27-.31-.61-.22-.61-.22l-.32,.07c-.14,.03-.24,.16-.23,.31,.05,.63,.47,4.81,.75,7.54,.33,3.18,1.43,11.87,1.43,11.87,0,0,.21,1.9,.23,2.83,.01,.5-.41,.66-.9,.72-2.86,.34-5.87,.71-8.72,1.06-.19,.02-.37,.03-.56,.06Z"/><path class="cls-1" d="M105.72,33.85c5.24-.31,12.84-.83,18.08-1.13,4.28-.24,11.77-.81,13.55-.94,.61-.04,.58,.37,.63,.7,.38,2.47,.73,5.26,1.11,7.73,.17,1.13,.23,2.25,.41,3.37,.2,1.23-.99,1.13-1.06,1.14-1.4,.04-7.19,.35-8.51,.56-.2,.03-.35,.21-.34,.42,.14,3.16,.27,6.23,.41,9.3,.2,4.26,.41,8.51,.6,12.77,.19,4.15,.37,8.3,.54,12.45,.05,1.2,.07,2.39,.11,3.59,.02,.59-.2,.81-.85,.83-1.54,.04-2.29,.21-3.83,.32-1.27,.09-7.72,.77-7.78,.78-1.44,.12-1.39-.92-1.48-1.87-.48-5.41-.97-10.82-1.44-16.23-.4-4.62-.65-8.92-1-13.54-.19-2.49-.45-5.3-.59-7.74-.01-.23-.21-.39-.43-.38-1.43,.11-6.46,.46-6.48,.46-.21,.02-.39-.08-.54-.2-.25-.21-.39-.52-.42-.85l-1.23-8.5-.22-1.91c-.04-.33,.06-.66,.28-.9,.12-.13,.28-.23,.47-.24Z"/><g class="cls-9"><g><path class="cls-11" d="M14.51,97.44h-.92c.31,.02,.62,.03,.92,0Z"/><path class="cls-11" d="M4.8,40.37c-.16,.19-.25,.45-.21,.84,.09,.72,.16,1.45,.26,2.17,.52,3.53,1.07,7.05,1.55,10.58,.8,5.81,1.54,11.62,2.32,17.43,.74,5.51,1.49,11.03,2.24,16.54,.39,2.89,.78,5.78,1.2,8.67,.04,.25,.22,.64,.4,.68,.33,.06,.67,.12,1.01,.15h.94L5.07,40.16l-.27,.21Z"/></g></g><g class="cls-6"><polygon class="cls-17" points="115.83 46.82 118.58 86.63 116.09 87.05 112.15 47.63 115.83 46.82"/><path class="cls-17" d="M108.88,48.58l-1.95-13.17c-.03-.22,.13-.42,.35-.44l33.98-2.61-.54-3.04-36.69,2.88,1.71,16.77,3.14-.4Z"/></g><g class="cls-2"><path class="cls-17" d="M135.49,84.4l1.14-32.81c.02-.52,.43-.94,.94-.98l14.82-2.52-1.36-2.66-17.86,2.36-.66,37.54,2.97-.94Z"/><polygon class="cls-17" points="149.65 74.36 151.09 74.07 155.29 81.52 150.85 81.68 149.65 74.36"/></g><g class="cls-12"><polygon class="cls-17" points="40.78 44.15 37.25 95.64 35.19 95.49 40.29 43.51 40.78 44.15"/><polygon class="cls-17" points="56.5 80.57 60.87 94.81 58.34 94.03 53.43 81.45 56.5 80.57"/></g><g class="cls-7"><path class="cls-17" d="M72.82,92.35l-5.34-44.96c-.03-.22,.12-.41,.34-.45l13.23-1.83-4.26-4.38-13.11,2.2,7.2,53.44,1.94-4.02Z"/><path class="cls-17" d="M92.22,58.11c.34,.4,1.72,1.2,1.72,1.2l-2.61-24.98,12.19-.91-.94-5.57-15.01,4.12,3.09,22.85s.97,2.59,1.55,3.29Z"/></g><polygon class="cls-17" points="52.51 71.68 50 64.4 50 64.4 52.51 71.68 46.55 72.58 47.39 73.71 52.91 72.45 52.51 71.68"/><path class="cls-14" d="M50,64.4l-.14-.39c-.09-.27-.36-.44-.64-.41l-.93,.09c-.36,.03-.64,.31-.69,.67l-1.05,8.23,5.96-.91-2.51-7.27Z"/><path class="cls-17" d="M149.25,65.36c-.57,2.81-3.95,4-6.7,.35-.34-.45-.14-1.12,.4-1.03,3.03,.49,5.37-.67,5.79-.76,.58-.12,.84-.16,.52,1.44"/><path class="cls-14" d="M148.7,64.11c-.57,2.81-3.95,4-6.7,.35-.34-.45-.14-1.12,.4-1.03,3.03,.49,5.37-.67,5.79-.76,.58-.12,.84-.16,.52,1.44"/><g class="cls-16"><g><path class="cls-11" d="M14.51,97.44h-.92c.31,.02,.62,.03,.92,0Z"/><path class="cls-17" d="M4.8,40.37c-.16,.19-.25,.45-.21,.84,.09,.72,.16,1.45,.26,2.17,.52,3.53,1.07,7.05,1.55,10.58,.8,5.81,1.54,11.62,2.32,17.43,.74,5.51,1.49,11.03,2.24,16.54,.39,2.89,.78,5.78,1.2,8.67,.04,.25,.22,.64,.4,.68,.33,.06,.67,.12,1.01,.15h.94L5.07,40.16l-.27,.21Z"/></g></g><path class="cls-15" d="M27.6,20.97c-.76-.8-1.47-1.66-2.18-2.5-.33-.39-.3-.6,.1-.93,.5-.41,5.53-2.32,7.5-3.05,9.33-3.47,12.84-6.44,19.73-6.38,9.48,.08,12.43,2.97,13.27,3.46,.47,.27,1.55,1.04,1.55,1.04,8.87,5.55,12.77,17.07,13.74,19.62,2.19,5.75,7.51,15.47,7.63,15.79,.26,.71,.13,.99-.57,1.24-.42,.15-6.12-9-6.12-9.01-2.45-4.05-6.61-4.76-8.72-4.49-.57,.07-1.12,.18-1.13,.18-.29,.04-2.46,.37-3.59,.55-13.37,2.08-17.44,.74-20.42-.2-4.38-1.38-8.62-4.18-12.12-7.02-4.6-3.73-7.94-7.54-8.65-8.29Z"/><g class="cls-4"><path class="cls-13" d="M28.73,17.48l-1.23,.79s8.74,10.99,22.79,18.58c.41,.22-4.5-.56-4.5-.56l-8.81-4.37-9.91-9.35-3.55-5.05L50.51,6.7s.23,1.19-.39,1.41c-8.55,3.09-21.39,9.37-21.39,9.37Z"/><path class="cls-13" d="M70.48,36.2l3.4-1.04c.61-.19,1.25-.35,1.89-.37,.68-.03,2.3,.36,2.61,.57,6.04,4.18,8.25,12.58,8.25,12.58l-7.5-9.26-8.64-2.47Z"/></g><path class="cls-13" d="M36.33,21.44c-.18,0-.25,.24-.09,.33,4.06,2.35,8.11,4.73,11.98,7.37,2.04,1.39,4.08,2.89,6.44,3.61,3.5,1.07,7.17,.31,10.68-.24,3.6-.57,7.77-1.38,6.64-1.63-1.46-.32-2.56-.78-4.01-1.14-4.56-1.13-9.08-2.54-13.28-4.67-3.92-1.99-7.84-4.66-12.23-4.44-2.06,.1-4.08,.85-6.12,.81Z"/><path class="cls-8" d="M132.75,99.81c.02,.06,.04,.13,.07,.21l-.07-.21Z"/><polygon class="cls-8" points="140.51 123.48 140.51 123.48 140.51 123.48 140.51 123.48"/><path class="cls-10" d="M132.75,99.81l.07,.21-.07-.21Z"/><path class="cls-14" d="M166.73,76.45c-.26-1.6,.69-2.94,2.32-3.2,1.64-.26,2.94,.71,3.19,2.32,.26,1.61-.68,2.95-2.31,3.21-1.64,.26-2.94-.71-3.2-2.33Zm4.94-.79c-.21-1.29-1.25-2.07-2.53-1.86-1.31,.21-2.04,1.28-1.84,2.56s1.25,2.08,2.54,1.87c1.3-.21,2.03-1.27,1.83-2.57Zm-1.7,1.44l-.47-.53-.23,.04,.08,.48c.04,.28-.08,.47-.35,.51l-.13,.02c-.26,.04-.44-.15-.5-.49l-.3-1.85c-.05-.34,.1-.55,.41-.6l.88-.14c.84-.13,1.31,.11,1.42,.77,.06,.39-.09,.72-.43,.92l.72,.74c.05,.05-.2,.37-.51,.42-.18,.03-.4-.03-.59-.28Zm-.82-1.15l.37-.06c.25-.04,.36-.17,.33-.37-.03-.2-.18-.29-.45-.25l-.34,.05,.1,.62Z"/></g></g></g></svg>