<?xml version="1.0" encoding="UTF-8"?><svg id="Layer_1" xmlns="http://www.w3.org/2000/svg" xmlns:xlink="http://www.w3.org/1999/xlink" viewBox="0 0 180 180"><defs><style>.cls-1{fill:#d52533;}.cls-2,.cls-3{fill:#fff;}.cls-4{fill:none;stroke:#fff;stroke-width:2.16px;}.cls-3{filter:url(#drop-shadow-1);}.cls-5{fill:#74ab42;}.cls-6{fill:#007937;}</style><filter id="drop-shadow-1" filterUnits="userSpaceOnUse"><feOffset dx="0" dy="0"/><feGaussianBlur result="blur" stdDeviation=".72"/><feFlood flood-color="#000" flood-opacity=".75"/><feComposite in2="blur" operator="in"/><feComposite in="SourceGraphic"/></filter></defs><rect class="cls-5" width="180" height="180"/><g><path class="cls-2" d="M88.89,148.85c32.28,0,58.38-26.4,58.38-58.85s-26.14-58.86-58.42-58.86c-32.23,.05-58.37,26.4-58.37,58.9,.05,32.45,26.19,58.81,58.42,58.81"/><path class="cls-4" d="M88.89,148.85c32.28,0,58.38-26.4,58.38-58.85s-26.14-58.86-58.42-58.86c-32.23,.05-58.37,26.4-58.37,58.9,.05,32.45,26.19,58.81,58.42,58.81Z"/><path class="cls-6" d="M53.97,56.09c-1.83,0-3.61,.07-5.34,.18,9.6-11.58,24.04-18.96,40.18-18.96,20.81,0,38.78,12.24,47.22,29.96-3.21,.55-6.67,.89-10.34,.89-13.29,0-23.28-2.8-33.86-5.78-11.04-3.1-22.45-6.3-37.86-6.3m31.67,62.93c-10.61-2.79-20.64-5.43-31.67-5.43-4.21,0-8.05,.42-11.5,1.08,8.77,16.77,26.22,28.22,46.34,28.22,15.42,0,29.28-6.72,38.86-17.42-.65,.02-1.31,.03-1.98,.03-15.47,0-27.97-3.29-40.06-6.48"/><path class="cls-1" d="M17.01,70.63v50.36s12.66-12.42,36.96-12.42,43.2,11.91,71.72,11.91c22.45,0,37.29-10.38,37.29-10.38V61.96s-15.01,11.23-37.29,11.23c-28.18,0-42.52-12.08-71.72-12.08-21.77,0-36.96,9.53-36.96,9.53"/><path class="cls-2" d="M61.25,75.91s.65,4.72-1.49,4.1c0,0-1.53-.75,1.49-4.1"/><path class="cls-2" d="M61.25,75.91s-3.72-2.96-1.75-3.97c0,0,1.62-.53,1.75,3.97"/><path class="cls-2" d="M61.25,75.91s-4.72,.44-3.98-1.68c0,0,.83-1.5,3.98,1.68"/><path class="cls-2" d="M61.25,75.91s-2.93,3.75-3.98,1.76c0,0-.48-1.63,3.98-1.76"/><path class="cls-2" d="M61.25,75.91s3.85,2.78,1.92,3.92c0,0-1.62,.58-1.92-3.92"/><path class="cls-2" d="M61.25,75.91s4.63-.88,4.11,1.28c0,0-.66,1.59-4.11-1.28"/><path class="cls-2" d="M61.25,75.91s2.54-3.97,3.76-2.12c0,0,.66,1.59-3.76,2.12"/><path class="cls-2" d="M61.25,75.91s-.7-4.67,1.44-4.1c0,0,1.53,.75-1.44,4.1"/><path class="cls-2" d="M61.25,76.7c.39,0,.74-.35,.74-.79,0-.4-.35-.75-.74-.75-.44,0-.74,.35-.74,.75,0,.44,.31,.79,.74,.79"/><path class="cls-2" d="M24.5,71.85l18.59-.04s-8.84,6.57-6.34,20.95c.52,3,1.1,5.95,3.98,7.19,4.59,1.9,9.36-4.9,11.37-10.63,.7-1.98,1.31-3.88,1.23-5.11l.04,18.74H22.53c7.79-8.82,9.1-21.61,1.97-31.09"/><path class="cls-2" d="M56.04,81.95h9.76v20.95h-10.59c3.94-7.59,5.99-14.47,.83-20.95"/><path class="cls-2" d="M67.85,81.91l9.27,.09,.09,3.31s2.8-2.6,3.85-2.91c1-.35,5.64-3.18,9.58,2.86-.04,.26,6.39-7.19,12.51-2.07,3.72,3.53,.66,17.29,4.42,19.71l-10.5-.09c1.27-6.35,1.27-10.98,.87-13.94-1.88-7.46-11.15-2.51-5.77,14.03l-9.36,.04c6.22-23.86-9.93-21.78-5.03,0l-10.63-.13c3.85-7.41,5.16-14.51,.7-20.91"/><path class="cls-2" d="M121.7,84.64c-.74,.09-2.27,1.72-2.1,3.13,.39,5.78,8.36,5.2,7.92-.53-2.36-9.79-20.16-7.72-20.29,4.76,.48,13.98,15.79,15.35,21.26,5.74-13.96,12.53-15.7-6.57-12.12-12.97,1.31-1.81,3.98-2.82,5.34-.13"/><path class="cls-2" d="M141.03,92.31c3.45-2.12,4.68-.48,4.73,2.65-1.23,6.35-4.42,7.06-6.39,6.35-2.54-1.06-3.02-5.74,1.66-9m-2.71-7.63c1.67-3.13,7.88-1.63,7.04,1.19-1.05,4.58-5.82,3.75-9.49,5.73-13.52,4.15-2.84,19.06,10.15,10.06l.35,1.24h8.62c-2.84-3.93-.61-12.31-3.5-17.6-3.76-7.1-24.54-4.72-20.55,3.35,1.57,3.13,9.23,3.13,7.39-3.97"/><path class="cls-3" d="M143.19,123.02c0-1.37,1.1-2.48,2.47-2.48s2.46,1.11,2.46,2.48-1.1,2.49-2.46,2.49-2.47-1.11-2.47-2.49m4.47,0c0-1.12-.89-2.01-2-2.01s-2.01,.9-2.01,2.01,.9,2.03,2.01,2.03,2-.9,2-2.03m-.77,1.36h-.61l-.59-1.14h-.52v1.14h-.52v-2.69h1.29c.23,0,.52,0,.72,.13,.24,.16,.32,.42,.32,.7,0,.49-.26,.69-.73,.72l.65,1.14Zm-.94-1.54c.29,0,.5-.07,.5-.41s-.37-.35-.63-.35h-.65v.76h.78Z"/></g></svg>