<?xml version="1.0" encoding="UTF-8"?><svg id="Layer_1" xmlns="http://www.w3.org/2000/svg" xmlns:xlink="http://www.w3.org/1999/xlink" viewBox="0 0 392.68 392.68"><defs><style>.cls-1,.cls-2,.cls-3{fill:#fff;}.cls-4{fill:#359444;}.cls-5{fill:#84aa47;}.cls-6{fill:none;stroke:#fff;stroke-width:2.16px;}.cls-2{font-family:TCCC-UnityHeadline-Bold, TCCC-UnityHeadline;font-size:10.27px;font-style:italic;}.cls-3{filter:url(#drop-shadow-1);}.cls-7{fill:#b92c32;}.cls-8{fill:#35783c;}</style><filter id="drop-shadow-1" filterUnits="userSpaceOnUse"><feOffset dx="0" dy="0"/><feGaussianBlur result="blur" stdDeviation=".72"/><feFlood flood-color="#000" flood-opacity=".75"/><feComposite in2="blur" operator="in"/><feComposite in="SourceGraphic"/></filter></defs><g><rect class="cls-5" x="16.34" y="16.34" width="360" height="360"/><g><path class="cls-1" d="M194.15,312.46c63.69,0,115.18-52.09,115.18-116.11s-51.58-116.12-115.26-116.12c-63.59,.1-115.17,52.1-115.17,116.21,.09,64.03,51.67,116.03,115.26,116.03"/><path class="cls-6" d="M194.15,312.46c63.69,0,115.18-52.09,115.18-116.11s-51.58-116.12-115.26-116.12c-63.59,.1-115.17,52.1-115.17,116.21,.09,64.03,51.67,116.03,115.26,116.03Z"/><path class="cls-8" d="M125.25,129.43c-3.61,0-7.12,.14-10.54,.36,18.95-22.85,47.42-37.4,79.28-37.4,41.05,0,76.51,24.14,93.17,59.12-6.34,1.08-13.17,1.75-20.4,1.75-26.22,0-45.94-5.53-66.81-11.4-21.77-6.11-44.3-12.43-74.7-12.43m62.48,124.17c-20.94-5.51-40.72-10.72-62.48-10.72-8.31,0-15.88,.82-22.69,2.14,17.3,33.1,51.74,55.67,91.42,55.67,30.43,0,57.77-13.26,76.67-34.37-1.29,.04-2.59,.06-3.9,.06-30.52,0-55.18-6.49-79.03-12.78"/><path class="cls-7" d="M52.34,158.13v99.36s24.98-24.5,72.91-24.5,85.24,23.5,141.51,23.5c44.29,0,73.58-20.47,73.58-20.47v-95s-29.62,22.15-73.58,22.15c-55.6,0-83.9-23.83-141.51-23.83-42.94,0-72.91,18.8-72.91,18.8"/><path class="cls-1" d="M139.61,168.54s1.29,9.31-2.94,8.09c0,0-3.01-1.48,2.94-8.09"/><path class="cls-1" d="M139.61,168.54s-7.34-5.83-3.46-7.83c0,0,3.2-1.05,3.46,7.83"/><path class="cls-1" d="M139.61,168.54s-9.32,.87-7.86-3.31c0,0,1.65-2.96,7.86,3.31"/><path class="cls-1" d="M139.61,168.54s-5.79,7.4-7.86,3.48c0,0-.95-3.22,7.86-3.48"/><path class="cls-1" d="M139.61,168.54s7.59,5.48,3.79,7.74c0,0-3.19,1.14-3.79-7.74"/><path class="cls-1" d="M139.61,168.54s9.14-1.74,8.11,2.52c0,0-1.3,3.13-8.11-2.52"/><path class="cls-1" d="M139.61,168.54s5-7.83,7.42-4.18c0,0,1.29,3.13-7.42,4.18"/><path class="cls-1" d="M139.61,168.54s-1.38-9.22,2.85-8.09c0,0,3.02,1.48-2.85,8.09"/><path class="cls-1" d="M139.61,170.11c.78,0,1.47-.7,1.47-1.57,0-.78-.69-1.48-1.47-1.48-.87,0-1.47,.69-1.47,1.48,0,.87,.6,1.57,1.47,1.57"/><path class="cls-1" d="M67.11,160.53l36.68-.09c.09,0-17.44,12.96-12.52,41.33,1.03,5.91,2.16,11.75,7.85,14.18,9.06,3.75,18.47-9.66,22.44-20.97,1.38-3.91,2.59-7.65,2.42-10.09l.09,36.97H63.23c15.36-17.4,17.95-42.63,3.88-61.34"/><path class="cls-1" d="M129.34,180.46h19.25v41.33h-20.89c7.77-14.98,11.83-28.54,1.64-41.33"/><path class="cls-1" d="M152.64,180.37l18.29,.18,.17,6.52s5.53-5.13,7.6-5.74c1.98-.7,11.13-6.27,18.9,5.65-.08,.52,12.6-14.18,24.68-4.08,7.34,6.96,1.29,34.11,8.72,38.9l-20.72-.18c2.5-12.53,2.5-21.67,1.73-27.49-3.7-14.71-22-4.96-11.39,27.67l-18.47,.08c12.26-47.07-19.59-42.98-9.92,0l-20.97-.26c7.6-14.62,10.18-28.63,1.38-41.25"/><path class="cls-1" d="M258.88,185.76c-1.46,.17-4.48,3.4-4.14,6.18,.78,11.4,16.48,10.27,15.62-1.04-4.66-19.32-39.78-15.23-40.04,9.39,.95,27.59,31.15,30.28,41.94,11.32-27.54,24.71-30.98-12.97-23.9-25.59,2.59-3.57,7.85-5.56,10.53-.26"/><path class="cls-1" d="M297.03,200.9c6.81-4.18,9.23-.96,9.32,5.22-2.42,12.54-8.72,13.92-12.6,12.54-5.01-2.09-5.96-11.32,3.28-17.76m-5.35-15.05c3.29-6.18,15.54-3.22,13.9,2.35-2.07,9.04-11.48,7.39-18.73,11.3-26.67,8.18-5.61,37.6,20.03,19.84l.69,2.44h17.01c-5.61-7.75-1.21-24.28-6.91-34.72-7.41-14.01-48.41-9.31-40.55,6.62,3.1,6.18,18.21,6.18,14.58-7.83"/><path class="cls-3" d="M301.28,261.5c0-2.7,2.18-4.9,4.88-4.9s4.86,2.2,4.86,4.9-2.18,4.92-4.86,4.92-4.88-2.2-4.88-4.92m8.82,0c0-2.2-1.76-3.97-3.94-3.97s-3.96,1.77-3.96,3.97,1.77,4,3.96,4,3.94-1.78,3.94-4m-1.52,2.68h-1.2l-1.16-2.25h-1.03v2.25h-1.03v-5.31h2.54c.45,0,1.03,.01,1.42,.26,.47,.31,.62,.83,.62,1.38,0,.96-.51,1.36-1.44,1.42l1.28,2.25Zm-1.86-3.03c.58,0,.99-.13,.99-.8s-.74-.69-1.25-.69h-1.28v1.49h1.54Z"/></g></g><rect class="cls-4" width="392.68" height="392.68"/><g><path class="cls-1" d="M216.79,188.61l7.32-20.19c-1.93-1.23-4.67-1.97-7.61-1.97-6.56,0-11.27,3.46-15.54,14.01v-12.95h-13.73l-22.26,61.5h19.91l12.25-34.04c7.3-20.29,18.48-11.96,19.66-6.37Z"/><text class="cls-2" transform="translate(326.94 230.16)"><tspan x="0" y="0">®</tspan></text><path class="cls-1" d="M107.97,210.25c7.06-19.54-19.66-32.28-14.9-45.37,1.35-3.7,4.08-5.78,8.52-5.78,6.6,0,13.22,5.31,15.95,16.52l8.19-22.51c-5.32-5-11.22-7.44-21.6-7.44-13.97,0-25.44,6.4-30.21,19.49-7.61,20.92,18.67,33.78,14.29,45.85-1.6,4.4-4.82,6.29-9.54,6.29-6.34,0-14.08-7.06-17.61-18.07l-8.74,24.02c5.21,5.9,12.7,7.94,21.71,7.94,16.96,0,28.74-6.6,33.92-20.93Z"/><path class="cls-1" d="M148.09,167.55l-20.03-.03-30.18,83.28h19.91l26.19-72.3c8.34,0,11.77,7.32,6.33,22.26-3.85,10.58-10.22,21-22.57,28.48,18.96,0,35.02-7.5,43.18-29.93,8.16-22.42-5.42-31.76-22.83-31.76Z"/><circle class="cls-1" cx="242.94" cy="155.36" r="13.48" transform="translate(-20.44 37.95) rotate(-8.57)"/><path class="cls-1" d="M323.06,166.45c-18.9,0-31.58,12.73-38.42,31.52-6.15,16.88-.5,31.94,16.98,31.94,15.2,0,26.85-9.63,32.4-20.4-6.22,5.12-14.05,9.22-20.81,9.22-9.14,0-11.92-10.1-7.96-20.98,4.82-13.24,11.66-23.36,16.76-23.36,6.63,0,.56,18.79-15.86,27.6,18.59,0,28.92-5.15,33.28-17.13,3.62-9.95-3.95-18.41-16.37-18.41Z"/><path class="cls-1" d="M294.96,167.36h-10.84l7.06-19.39h-9.78c-6.5,15.25-18.25,23.69-30.99,25.79l-2.64,7.13h11.54l-17.41,48.12h19.91l17.41-48.12h10.84l4.9-13.54Z"/><path class="cls-1" d="M227.72,170.43l-21.2,58.58h19.91l19.83-54.81c-6.34,.28-12.45-.84-18.54-3.78Z"/></g></svg>