<?xml version="1.0" standalone="no"?>
<!DOCTYPE svg PUBLIC "-//W3C//DTD SVG 1.0//EN" "http://www.w3.org/TR/2001/REC-SVG-20010904/DTD/svg10.dtd">
<svg xmlns="http://www.w3.org/2000/svg" xmlns:xlink="http://www.w3.org/1999/xlink" id="body_1" width="200" height="42">

<g transform="matrix(0.10401704 0 0 0.10401704 0.14364561 -0)">
	<g>
		<g>
			<g>
                <path d="M388.45 191.54C 386.68002 185.56 384.16 179.67 377.57 178.67C 373.76 179.56 371.55002 183.48 370.77002 186.34999C 366.05002 214.06999 365.23 243 365.66003 272.40997C 366.14005 282.50998 364.37003 297.15997 376.70004 299.69998C 382.70004 301.43 388.63004 299.69998 393.32004 295.84998C 394.92004 262.66998 392.26004 232.21997 390.18002 200.34998C 389.72003 196.35997 388.90002 193.16998 388.45 191.53998L388.45 191.53998L388.45 191.54z" stroke="none" fill="#000000" fill-rule="nonzero" />
                <path d="M729.63 205.55C 735.47003 205.13 751.79 205.93001 759.45 199.57C 760.31 190.18001 751.79004 181.64001 743.31 177.86002C 717.27997 176.13002 692.54 181.64001 667.85 184.65001C 665.52997 184.98001 661.04 185.49 661.04 188.92001C 663.16 199.99002 674.23 202.12001 682.75 204.24002L682.75 204.24002L682.31 205.50002L675.58 226.17001L673.81 226.20001L670.58 226.46L668.32 226.95001C 665.53 227.83002 662.10004 229.25002 663.16003 232.79001C 671.24005 248.98001 655.04004 260.02002 656.81006 276.27002C 657.91003 286.80002 663.4501 297.73 672.8301 303.09003C 674.2301 303.71002 676.2701 304.46002 679.0101 304.77002C 703.80005 306.94003 724.05005 293.88 742.8301 279.25003C 744.9501 274.58002 741.5401 268.61002 738.55005 264.73004C 720.6401 260.86005 703.60004 269.00003 685.74005 270.29004L685.74005 270.29004L685.69006 270.24005L684.2601 270.42004C 686.1601 265.84006 689.48004 255.95004 693.2001 244.57004C 695.50006 244.23004 700.0401 244.04004 703.7101 244.30003C 707.3401 244.44003 711.2401 244.79004 713.43005 244.74004C 722.06006 244.74004 730.78 245.50003 737.11005 240.85004L737.11005 240.85004L738.44006 238.15004C 738.66003 235.18004 739.55005 229.38004 737.29004 225.97003C 726.58 222.17003 713.43005 223.85004 701.9 223.85004L701.9 223.85004L700.24005 223.85004L705.7701 206.36003L729.63007 205.55003L729.63 205.55z" stroke="none" fill="#000000" fill-rule="nonzero" />
                <path d="M861.9 221.59L861.86005 221.59C 861.73004 235.14 856.2001 246.95999 845.79004 256.26C 835.65 264.34 823.75006 270.69 810.60004 270.73L810.60004 270.73L812.50006 267.17C 815.47003 261.97 818.5201 256.72 821.57007 251.48001C 829.1001 239.34001 837.6501 227.55002 847.30005 216.68001L847.30005 216.68001L848.09 215.79001L848.71 215.09001C 850.75 212.96 852.83 210.84001 854.95 208.73001L854.95 208.73001L857.13 208.09001L857.08 208.05002C 859.33 208.49002 860.13 211.10002 860.84 213.36002C 861.28 215.04001 861.9 218.09001 861.9 221.59001L861.9 221.59001L861.9 221.59zM866.77 190.92L864.47003 188.62C 861.55005 186.36 858.14 184.98 854.47003 184.90999C 851.63 184.93999 847.83 186.70999 845.93005 187.79999C 831.85004 195.82999 819.63007 207.24998 808.34 220.43999L808.34 220.43999L807.76 221.12999C 801.12 229.15999 791.85004 241.34 782.60004 256.44C 780.05005 253.47 780.05005 247.33 780.36005 243.59C 783.28 217.56 809.58 200.15 806.61005 173.12C 801.75006 172.76999 798.56006 177.33 795.24005 180.45L795.24005 180.45L791.48004 184.54C 772.97003 207.68999 758.2001 233.68 762.35004 265.2C 763.01 269.36002 764.63007 273.96002 766.56006 277.72L766.56006 277.72L768.7601 281.51C 764.38007 290.61002 760.31006 300.42 756.9001 310.66C 751.94006 327.31 747.3401 344.09 744.6401 361.77002C 743.8401 365.78003 742.56006 373.48 743.44006 380.25003C 743.62006 382.31003 744.04004 384.30002 744.86005 386.18002C 749.11005 395.17 758.93005 404.95 768.67004 403.67C 771.68005 381.09003 776.9501 359.45 783.11005 338.17C 786.43005 327.44 790.81006 314.73 796.3901 301.21002C 809.2301 303.45 819.63007 299.69003 819.63007 299.69003C 846.4501 290.25003 871.91003 264.76004 877.7601 237.07004C 881.9601 220.11005 877.18005 203.93004 866.7701 190.92004z" stroke="none" fill="#000000" fill-rule="nonzero" />
                <path d="M423.56 126.29C 419.76 128.85 415.88 130.54001 412.07 132.22C 400.14 136.49 387.79 138.64 375.44 136.49C 385.98 119.87 402.75 103.66 420.86 96.630005C 421.83 96.270004 423.78 95.69 425.86 95.380005C 431.09 94.87 437.06 94.450005 438.91998 100.700005C 441.05 111.770004 431.65997 120.3 423.56 126.29001L423.56 126.29001L423.56 126.29zM355.47998 124.200005L354.09998 125.840004C 351.84998 123.850006 352.24997 120.66 353.08 117.630005C 353.75 115.310005 354.72 113.69 354.99 113.23C 356.75998 110.21001 359.28 107.07001 361.78 104.55C 365.66 100.670006 370.26 97.51 375.15 94.770004L375.15 94.770004L378.58 93.170006L379.11 92.990005C 380.44998 92.51 383.31998 91.75001 387.40997 92.15001L387.40997 92.15001L387.45996 92.15001L390.00995 92.59001C 373.02994 103.84001 359.63995 119.16001 355.47995 124.20001zM451.58 88.43001L449.87997 86.66001L449.89996 86.66001C 449.89996 86.66001 446.39996 83.12001 441.66995 81.640015L441.66995 81.640015L440.22995 81.26002C 438.02994 80.73002 436.04996 80.62002 434.79996 80.62002L434.79996 80.62002L433.40994 80.69002C 431.90994 75.640015 425.81995 72.41002 425.81995 72.41002C 421.65994 70.06002 417.00995 68.96002 412.77994 68.47002L412.77994 68.47002L412.22995 68.38002C 401.99994 67.32002 394.02994 68.65002 387.83997 70.22002C 382.87997 71.530014 378.53998 73.38002 376.01996 74.58002C 351.92996 86.62002 342.67996 100.500015 339.11996 108.62002L339.11996 108.62002L338.78998 109.24002L337.80997 112.12002L337.05997 115.13002C 334.88995 125.58002 337.32996 136.73003 345.20996 144.61002C 345.20996 145.54001 345.04996 148.51001 345.06995 151.36002L345.06995 151.36002L345.81995 156.87001L347.14993 160.59001C 349.00992 164.55002 350.66992 165.91002 353.70993 165.91002C 359.21994 166.35002 361.77994 157.36002 363.53992 155.26003C 374.1599 158.65002 386.94992 160.81003 398.47992 157.36003C 406.51993 154.84003 413.3799 151.38004 420.56992 146.71004C 432.45993 138.86003 443.25992 129.16003 450.82993 116.39004C 453.21994 112.160034 454.3499 108.090034 454.89993 105.39004C 456.11993 98.92004 455.49994 93.130035 451.57993 88.43004z" stroke="none" fill="#000000" fill-rule="nonzero" />
                <path d="M621.73 172.3C 618.33997 167.37001 612.33997 158.25 604.68 157.8C 601.7 159.13 601.56 163.34 602.12 165.88C 607.67 193.90001 618.66 219.38 618.69 249.44L618.69 249.44L618.38 253.87L616.17 256.22998C 599.35 233.51999 587.97 207.95998 567.20996 187.25998L567.20996 187.25998L565.32996 185.81998C 561.9899 184.31998 558.92993 186.13998 556.58997 188.78998C 555.95996 189.62997 554.68 191.44998 553.22 194.58998C 546.67 209.85999 543.56995 226.90997 541.23 243.90997C 539.94995 252.51997 536.11 276.26996 542.06 289.45996C 544.61 294.18997 549.3 298.85995 554.81 298.43997C 558.65 297.97998 561.61 293.30997 562.91 289.45996L562.91 289.45996L567.07996 220.48996L568.88995 223.42996C 582.97 246.02997 590.18994 271.56995 612.33997 289.45996C 615.50995 291.53995 619.54 291.08997 622.99 289.67996C 625.16 288.87997 628.20996 287.52997 630.77997 285.29996C 638.35 279.14996 642.37994 268.49997 643.50995 260.01996C 647.26996 227.69995 639.18994 197.42996 621.7299 172.29996L621.7299 172.29996L621.73 172.3z" stroke="none" fill="#000000" fill-rule="nonzero" />
                <path d="M529.67 186.31L528.95996 184.67L527.80994 183.94C 495.44995 170.64 450.73993 174.52 420.72992 191.1C 411.56992 195.79001 407.48993 204.62001 406.73993 214.56C 406.69992 216.22 406.73993 220.53 408.5999 224.03C 410.1499 226.59 412.26993 228.94 414.7099 230.22L414.7099 230.22L416.5199 230.85C 426.3899 232.97 436.8899 233.68001 447.4199 234.34001C 452.7099 234.74 456.5799 234.99 456.5799 234.99C 476.4599 236.67 485.7999 239.21 485.7999 239.21L485.7999 239.21L485.9399 239.21C 493.8799 241.47 504.8799 243.24 507.04993 253.05L507.04993 253.05L506.91992 254.13C 500.22992 264.84 480.2199 268.52002 466.73993 270.73C 457.90994 271.75 435.61993 275.47 424.70993 266.53L424.70993 266.53L422.88992 262.9L422.88992 262.25L422.88992 262.23L424.48993 257.72L425.94992 256.34C 440.0299 248.2 457.9099 265.63998 472.29993 263.91998C 486.77994 262.46997 491.45993 259.03998 492.89993 255.87999C 494.09995 253.55998 493.54993 251.95999 493.54993 251.95999C 488.45993 247.70999 476.98993 244.32999 467.61993 242.62C 454.31995 240.70999 435.39993 237.93 422.11993 245.9C 421.87994 246.03 419.37994 247.62 417.66992 250.12C 415.14993 253.93 413.2499 258.51 413.04993 263.36L413.04993 263.36L413.64993 266.96997C 420.43994 283.96997 438.20993 292.99997 454.38992 296.71997C 476.36993 300.20996 500.14993 297.24997 516.42993 282.76996C 519.55994 279.97995 521.2199 277.52997 522.00995 276.16995C 526.1 268.07996 527.31995 255.05995 524.70996 244.96996C 523.95996 242.12996 522.72 239.96996 521.74994 238.50995C 504.83994 216.21994 473.67993 222.51994 447.32996 218.31995C 444.05997 217.85994 439.44995 217.05995 435.35995 215.74994C 432.80997 215.01994 431.30997 214.35994 430.50995 213.92993L430.50995 213.92993L429.86993 213.57993L429.77994 213.48993L428.51993 211.71992L428.89993 210.87993C 451.75995 201.71992 479.24994 202.93993 504.69995 199.98993C 512.75995 198.74992 521.25995 199.08994 526.79 192.90993L526.79 192.90993L527.63995 191.97993C 528.47 190.37993 529.67 188.63994 529.62994 186.70993L529.62994 186.70993L529.6699 186.34993L529.6699 186.30994L529.67 186.31z" stroke="none" fill="#000000" fill-rule="nonzero" />
                <path d="M130.08 282.2C 104.67 272.92 78.020004 259.40002 60.560005 234.96L60.560005 234.96L60.030006 233.77L60.000008 233.63L59.99001 233.52C 59.250008 228.92 64.72001 225.49 68.31001 224.29001C 78.110016 220.88 88.80001 218.72 99.430016 217.03001C 118.02002 214.15001 128.36002 213.65001 132.63002 213.31001C 132.63002 236.31001 130.95003 258.80002 130.08002 282.2L130.08002 282.2L130.08 282.2zM348.62 213.71002C 348.62 213.71002 344.36 167.72002 279.55 118.71002L279.55 118.71002L278.34 117.74002L277.61 117.28002C 273.09 113.89002 268.27 110.52002 263.12997 107.16002C 242.54997 93.53002 221.38997 83.35002 204.42998 75.95002C 154.47998 54.04002 81.279976 38.50002 15.899979 58.510017C 6.4699783 61.920017 3.0599785 70.95002 -2.0980835E-05 79.49002L-2.0980835E-05 79.49002L0.12997901 84.49002C 3.5899792 88.30002 9.249979 88.66002 14.759979 88.88002C 17.03998 88.90002 21.999979 88.88002 25.27998 88.39002C 27.33998 87.900024 29.18998 87.04002 29.149979 84.81002L29.149979 84.81002L28.729979 83.70002C 24.569979 78.41002 17.819979 80.47002 13.239979 77.860016L13.239979 77.860016L13.129979 77.37002L13.879979 76.44002L13.809979 76.44002C 15.40998 74.960014 18.149979 74.180016 20.51998 73.67002L20.51998 73.67002L21.44998 73.43002L22.84998 73.21002L23.729979 73.09002C 76.57998 64.790016 127.75998 74.53002 173.52998 91.31002C 226.07999 112.78002 287.21 145.01003 311.83 202.34003L311.83 202.34003L313.68997 207.65002L313.86996 208.18002L314.16995 209.29002L314.92996 212.74002L315.07996 213.54002C 318.90994 233.59003 314.16995 255.68002 297.48996 269.43002C 261.26996 298.42 209.73996 300.97003 164.19997 292.42L164.19997 292.42L162.97997 227.81001C 162.99997 224.56001 163.03996 217.03001 162.92996 213.6L162.92996 213.6L162.92996 211.74C 168.92996 211.63 170.67996 211.74 172.66997 211.85C 193.20996 212.78 222.18997 216.54001 243.69997 227.21L243.69997 227.21L244.62996 228.63L244.62996 228.68001L244.53996 229.07L243.11996 232.62001L243.16997 232.62001L243.07997 232.79001L242.29997 233.99C 240.59998 236.51001 239.53998 237.38 239.17998 237.62001C 235.37997 240.76001 229.79997 242.36002 229.79997 247.23001L229.79997 247.23001L230.29997 247.93001C 234.70998 249.84001 239.82997 250.72 244.67998 250.81001C 245.33998 250.81001 247.92998 250.72002 250.55998 249.37001C 257.81998 245.41 266.18 239.06001 268.11 231.07C 270.16998 223.85 267.78 217.70001 264.55 212.03C 262.47 208.67 259.41998 205.9 257.81998 204.64C 240.06998 191.12 218.46997 185.92 196.10999 184.17C 182.73999 182.99 172.57999 183.08 166.77998 183.34L166.77998 183.34L165.00998 183.34L163.52998 183.43L162.10999 183.56999L161.19998 146.70999C 159.89998 137.34999 154.82999 126.27999 144.99998 122.87999C 134.77998 141.59999 134.52998 183.12 133.55998 186.37999L133.55998 186.37999L129.89998 187.18C 123.15998 188.39 115.849976 189.95999 108.18998 192.04C 101.81998 193.65999 95.48998 195.43 89.19998 197.87C 77.609985 202.42 66.00998 208.15999 56.03998 217.82999L56.03998 217.82999L53.78998 220.56999C 51.439983 224.29 49.86998 229.17 50.72998 233.76999L50.72998 233.76999L51.88998 236.87C 69.51998 266.97 101.469986 289.63998 131.33998 303.51C 133.46999 314.2 133.46999 325.67 140.32999 333.39C 146.30998 335.01 152.9 334.08002 157.34999 332.93002C 163.29 330.50003 162.95 322.26 163.48 316.59003L163.48 316.59003L164.2 316.75003C 216.08 329.12003 273.22998 324.39005 314.97 293.73004C 341.04 274.14005 353.86 245.28004 348.62 213.71005z" stroke="none" fill="#000000" fill-rule="nonzero" />
			</g>
            <path d="M970.37 0L975.4 0L975.4 403.2L970.37 403.2z" stroke="none" fill="#000000" fill-rule="nonzero" />
			<g>
                <path d="M1210.35 135.96L1254.38 0.4500122L1297.95 135.71L1439.25 135.57L1325.52 218.43001L1368.28 353.58002L1254.42 270.47003L1139.7101 353.58002L1152.31 313.26C 1152.31 313.26 1187.79 270.75 1221.2401 238.72C 1256.6602 204.81 1303.9302 168.77 1303.9302 168.77C 1303.9302 168.77 1266.8901 177.02 1237.8002 189.72C 1208.9202 202.33 1182.5201 218.98 1182.5201 218.98L1182.5201 218.98L1069.6201 135.23999L1210.3501 135.95999L1210.35 135.96z" stroke="none" fill="#FF8E00" fill-rule="nonzero" />
                <path d="M1590.33 169.5C 1590.33 169.5 1598.12 167.17 1597.87 156.16C 1597.68 147.12001 1586.68 143.14 1576.99 141.06C 1566.64 138.86 1541.63 135.98999 1521.35 147.97C 1498.0399 161.75 1496.61 191.25 1505.48 204.32C 1515.4199 218.96 1534.53 228.15001 1549.4199 235.09001C 1567.08 243.35 1578.4999 252.71 1573.4999 264.11002C 1567.1299 278.63 1550.8398 277.06003 1536.3398 275.88C 1521.8098 274.72 1505.5898 269.34 1505.5898 269.34L1505.5898 269.34L1498.0398 294.3C 1498.0398 294.3 1519.3998 302.5 1544.3499 303.4C 1574.6698 304.53 1599.5698 292.5 1605.3098 269.69C 1611.4598 245.18001 1600.9698 226.99 1586.3398 218.45C 1570.2998 209.09 1549.8198 203.81 1537.3699 195.09C 1528.4299 188.81 1529.9698 175.56 1540.1499 169.83C 1548.5199 165.13 1561.7599 164.01 1573.4999 165.44C 1582.7098 166.56 1590.3298 169.5 1590.3298 169.5L1590.3298 169.5L1590.33 169.5z" stroke="none" fill="#FF8E00" fill-rule="nonzero" />
                <path d="M1611.25 179.69L1627.47 179.69L1627.47 152.1L1657.65 146.28L1657.65 179.69L1696.53 179.69L1693.06 201.43001L1657.65 201.43001L1657.65 262.30002C 1657.65 274.14 1665.88 278.26 1672.8301 277.51C 1681.04 276.63 1692.8201 273.80002 1692.8201 273.80002L1692.8201 273.80002L1699.8 295.90002C 1699.8 295.90002 1680.5 302.45 1659.4 302.45C 1640.54 302.45 1627.4601 290.01 1627.4601 273.97C 1627.4601 262.95 1627.6301 201.48999 1627.6301 201.48999L1627.6301 201.48999L1606.8002 201.43L1611.2501 179.68999L1611.25 179.69z" stroke="none" fill="#FF8E00" fill-rule="nonzero" />
                <path d="M1825.49 282.15C 1825.49 282.15 1819.59 283.27 1816.6799 283.27C 1813.7999 283.27 1808.57 282.11 1808.57 275.13998L1808.57 275.13998L1808.57 182.26999C 1808.57 182.26999 1785.9199 177.04999 1768.5099 176.46999C 1751.0999 175.88998 1728.5999 181.31999 1713.9498 200.96999C 1698.6299 221.55998 1700.9098 263.34998 1709.8998 281.52997C 1719.2998 300.51996 1740.1798 305.14996 1758.6498 302.99997C 1773.8497 301.20996 1781.8698 289.64996 1781.8698 289.64996C 1781.8698 289.64996 1784.8297 295.37997 1787.6798 297.76996C 1791.9598 301.38995 1799.5898 304.69995 1813.1698 301.44995C 1828.8698 297.66995 1825.4897 282.14996 1825.4897 282.14996L1825.4897 282.14996L1825.49 282.15zM1778.38 271.86C 1778.38 271.86 1764.1901 281.22998 1749.9401 276.31C 1733.0001 270.44 1731.9401 244.37 1733.6901 232.18C 1735.43 220 1743.42 206.04 1753.43 202C 1765.53 197.12 1778.38 202 1778.38 202L1778.38 202L1778.38 271.86z" stroke="none" fill="#FF8E00" fill-rule="nonzero" />
                <path d="M1828.03 199.14C 1828.03 199.14 1824.64 186.1 1834.8401 180.05C 1840.93 176.41 1852.0801 174.46 1861.9801 178.8C 1868.4401 181.63 1870.3501 188.03 1872.1201 192.24C 1872.1201 192.24 1879.2201 182.94 1891.8201 179.69C 1906.28 175.95 1920.0001 179.38 1920.0001 179.38L1920.0001 179.38L1911.2902 206.06C 1911.2902 206.06 1897.5702 204.44 1888.8502 206.17C 1880.1503 207.93 1873.9802 213.61 1873.9802 213.61L1873.9802 213.61L1873.9802 298.71L1843.3903 298.71L1843.3903 220.18C 1843.3903 206.26 1844.6102 197.29999 1836.7502 196.78C 1833.3202 196.56 1828.0303 199.14 1828.0303 199.14L1828.0303 199.14L1828.03 199.14z" stroke="none" fill="#FF8E00" fill-rule="nonzero" />
			</g>
		</g>
	</g>
</g>
</svg>